<svg xmlns="http://www.w3.org/2000/svg" xmlns:xlink="http://www.w3.org/1999/xlink" version="1.2" width="210.00mm" height="199.65mm" viewBox="0.0000 -0.0000 132.7795 126.2367">
<style type="text/css">
<![CDATA[
tspan { white-space: pre; }
]]>
</style>
<g transform="translate(30.7859, 14.0754)">
<text font-family="serif" font-weight="bold" font-size="4.9394" text-anchor="start" fill="currentColor">
<tspan>Puji Tuhan Sang Pencipta</tspan>
</text>
</g>
<g transform="translate(98.0292, 17.5754)">
<text font-family="serif" font-size="2.4691" text-anchor="start" fill="currentColor">
<tspan>Syair dan Lagu oleh</tspan>
</text>
</g>
<g transform="translate(101.0642, 20.3754)">
<text font-family="serif" font-size="2.7719" text-anchor="start" fill="currentColor">
<tspan>H</tspan>
</text>
</g>
<g transform="translate(103.4922, 20.3754)">
<text font-family="serif" font-size="2.2000" text-anchor="start" fill="currentColor">
<tspan>ENRI</tspan>
</text>
</g>
<g transform="translate(109.5621, 20.3754)">
<text font-family="serif" font-size="2.7719" text-anchor="start" fill="currentColor">
<tspan> Y</tspan>
</text>
</g>
<g transform="translate(112.2556, 20.3754)">
<text font-family="serif" font-size="2.2000" text-anchor="start" fill="currentColor">
<tspan>ULIANTO</tspan>
</text>
</g>
<g transform="translate(72.3951, 20.9065)">
<rect x="0.0000" y="20.1511" width="0.2039" height="4.9463" ry="0.0000" fill="currentColor"/>
</g>
<g transform="translate(123.0914, 20.9065)">
<rect x="0.0000" y="20.1511" width="0.2039" height="4.9463" ry="0.0000" fill="currentColor"/>
</g>
<g transform="translate(72.3951, 48.0039)">
<rect x="0.0000" y="-2.0537" width="0.2039" height="4.0537" ry="0.0000" fill="currentColor"/>
</g>
<g transform="translate(72.3951, 26.9564)">
<rect x="0.0000" y="-2.0000" width="0.2039" height="4.0000" ry="0.0000" fill="currentColor"/>
</g>
<g transform="translate(123.0914, 26.9564)">
<rect x="0.0000" y="-2.0000" width="0.2039" height="4.0000" ry="0.0000" fill="currentColor"/>
</g>
<g transform="translate(72.3951, 39.0039)">
<rect x="0.0000" y="-2.0000" width="0.2039" height="4.0537" ry="0.0000" fill="currentColor"/>
</g>
<g transform="translate(123.0914, 39.0039)">
<rect x="0.0000" y="-2.0000" width="0.2039" height="4.0537" ry="0.0000" fill="currentColor"/>
</g>
<g transform="translate(123.0914, 48.0039)">
<rect x="0.0000" y="-2.0537" width="0.2039" height="4.0537" ry="0.0000" fill="currentColor"/>
</g>
<g transform="translate(9.4843, 50.0039)">
<line stroke-linejoin="round" stroke-linecap="round" stroke-width="0.1073" stroke="currentColor" x1="0.0537" y1="0" x2="113.7574" y2="0"/>
</g>
<g transform="translate(9.4843, 49.0039)">
<line stroke-linejoin="round" stroke-linecap="round" stroke-width="0.1073" stroke="currentColor" x1="0.0537" y1="0" x2="113.7574" y2="0"/>
</g>
<g transform="translate(9.4843, 48.0039)">
<line stroke-linejoin="round" stroke-linecap="round" stroke-width="0.1073" stroke="currentColor" x1="0.0537" y1="0" x2="113.7574" y2="0"/>
</g>
<g transform="translate(9.4843, 47.0039)">
<line stroke-linejoin="round" stroke-linecap="round" stroke-width="0.1073" stroke="currentColor" x1="0.0537" y1="0" x2="113.7574" y2="0"/>
</g>
<g transform="translate(9.4843, 46.0039)">
<line stroke-linejoin="round" stroke-linecap="round" stroke-width="0.1073" stroke="currentColor" x1="0.0537" y1="0" x2="113.7574" y2="0"/>
</g>
<g transform="translate(9.4843, 41.0039)">
<line stroke-linejoin="round" stroke-linecap="round" stroke-width="0.1073" stroke="currentColor" x1="0.0537" y1="0" x2="113.7574" y2="0"/>
</g>
<g transform="translate(9.4843, 40.0039)">
<line stroke-linejoin="round" stroke-linecap="round" stroke-width="0.1073" stroke="currentColor" x1="0.0537" y1="0" x2="113.7574" y2="0"/>
</g>
<g transform="translate(9.4843, 39.0039)">
<line stroke-linejoin="round" stroke-linecap="round" stroke-width="0.1073" stroke="currentColor" x1="0.0537" y1="0" x2="113.7574" y2="0"/>
</g>
<g transform="translate(9.4843, 38.0039)">
<line stroke-linejoin="round" stroke-linecap="round" stroke-width="0.1073" stroke="currentColor" x1="0.0537" y1="0" x2="113.7574" y2="0"/>
</g>
<g transform="translate(9.4843, 37.0039)">
<line stroke-linejoin="round" stroke-linecap="round" stroke-width="0.1073" stroke="currentColor" x1="0.0537" y1="0" x2="113.7574" y2="0"/>
</g>
<g transform="translate(9.4843, 45.0039)">
<rect x="77.8791" y="-0.1037" width="2.4665" height="0.2073" ry="0.1037" fill="currentColor"/>
</g>
<g transform="translate(9.4843, 45.0039)">
<rect x="65.7826" y="-0.1037" width="2.4665" height="0.2073" ry="0.1037" fill="currentColor"/>
</g>
<g transform="translate(9.4843, 44.0039)">
<rect x="48.7851" y="-0.1037" width="2.4665" height="0.2073" ry="0.1037" fill="currentColor"/>
</g>
<g transform="translate(9.4843, 45.0039)">
<rect x="48.7851" y="-0.1037" width="2.4665" height="0.2073" ry="0.1037" fill="currentColor"/>
</g>
<g transform="translate(9.4843, 45.0039)">
<rect x="35.0797" y="-0.1037" width="2.4665" height="0.2073" ry="0.1037" fill="currentColor"/>
</g>
<g transform="translate(9.4843, 44.0039)">
<rect x="21.6243" y="-0.1037" width="2.4665" height="0.2073" ry="0.1037" fill="currentColor"/>
</g>
<g transform="translate(9.4843, 45.0039)">
<rect x="21.6243" y="-0.1037" width="2.4665" height="0.2073" ry="0.1037" fill="currentColor"/>
</g>
<g transform="translate(9.4843, 45.0039)">
<rect x="7.9189" y="-0.1037" width="2.4665" height="0.2073" ry="0.1037" fill="currentColor"/>
</g>
<g transform="translate(77.2526, 39.0039)">
<rect x="-0.0697" y="-2.0000" width="0.1395" height="3.2582" ry="0.0444" fill="currentColor"/>
</g>
<g transform="translate(75.7477, 48.0039)">
<rect x="-0.0697" y="-3.2582" width="0.1395" height="3.2582" ry="0.0444" fill="currentColor"/>
</g>
<g transform="translate(87.7745, 41.0039)">
<path transform="scale(0.0050, -0.0050)" d="M219 135c54 0 107 -27 107 -87c0 -18 -5 -37 -13 -54c-32 -66 -114 -129 -206 -129c-54 0 -107 27 -107 87c0 18 5 37 13 54c32 66 114 129 206 129z" fill="currentColor"/>
</g>
<g transform="translate(99.8710, 28.1064)">
<text font-family="sans" font-size="2.2000" text-anchor="start" fill="currentColor">
<tspan>2</tspan>
</text>
</g>
<g transform="translate(89.3491, 39.0039)">
<rect x="-0.0697" y="-1.5000" width="0.1395" height="3.2582" ry="0.0444" fill="currentColor"/>
</g>
<g color="rgba(0.0000%, 0.0000%, 100.0000%, 100.0000%)">
</g>
<g transform="translate(87.7745, 45.0039)">
<path transform="scale(0.0050, -0.0050)" d="M219 135c54 0 107 -27 107 -87c0 -18 -5 -37 -13 -54c-32 -66 -114 -129 -206 -129c-54 0 -107 27 -107 87c0 18 5 37 13 54c32 66 114 129 206 129z" fill="currentColor"/>
</g>
<g transform="translate(86.1622, 34.1867)">
<text font-family="sans" font-size="2.4691" text-anchor="start" fill="currentColor">
<tspan>ben</tspan>
</text>
</g>
<g transform="translate(87.7176, 31.3867)">
<text font-family="sans" font-size="2.4691" text-anchor="start" fill="currentColor">
<tspan>a</tspan>
</text>
</g>
<g transform="translate(87.7745, 28.1064)">
<text font-family="sans" font-size="2.2000" text-anchor="start" fill="currentColor">
<tspan>3</tspan>
</text>
</g>
<g transform="translate(64.7688, 34.1867)">
<text font-family="sans" font-size="2.4691" text-anchor="start" fill="currentColor">
<tspan>as</tspan>
</text>
</g>
<g transform="translate(67.0453, 39.0039)">
<rect x="-0.0697" y="-2.0000" width="0.1395" height="2.7582" ry="0.0444" fill="currentColor"/>
</g>
<g color="rgba(0.0000%, 0.0000%, 100.0000%, 100.0000%)">
</g>
<g transform="translate(65.4707, 40.0039)">
<path transform="scale(0.0050, -0.0050)" d="M219 135c54 0 107 -27 107 -87c0 -18 -5 -37 -13 -54c-32 -66 -114 -129 -206 -129c-54 0 -107 27 -107 87c0 18 5 37 13 54c32 66 114 129 206 129z" fill="currentColor"/>
</g>
<g transform="translate(64.6361, 31.3867)">
<text font-family="sans" font-size="2.4691" text-anchor="start" fill="currentColor">
<tspan>an</tspan>
</text>
</g>
<g transform="translate(65.4707, 28.1064)">
<text font-family="sans" font-size="2.2000" text-anchor="start" fill="currentColor">
<tspan>5</tspan>
</text>
</g>
<g transform="translate(58.7502, 48.0039)">
<rect x="-0.0697" y="-3.7582" width="0.1395" height="3.7582" ry="0.0444" fill="currentColor"/>
</g>
<g transform="translate(75.6780, 40.5039)">
<path transform="scale(0.0050, -0.0050)" d="M219 135c54 0 107 -27 107 -87c0 -18 -5 -37 -13 -54c-32 -66 -114 -129 -206 -129c-54 0 -107 27 -107 87c0 18 5 37 13 54c32 66 114 129 206 129z" fill="currentColor"/>
</g>
<g color="rgba(0.0000%, 0.0000%, 100.0000%, 100.0000%)">
</g>
<g transform="translate(75.6780, 44.5039)">
<path transform="scale(0.0050, -0.0050)" d="M219 135c54 0 107 -27 107 -87c0 -18 -5 -37 -13 -54c-32 -66 -114 -129 -206 -129c-54 0 -107 27 -107 87c0 18 5 37 13 54c32 66 114 129 206 129z" fill="currentColor"/>
</g>
<g transform="translate(73.2310, 34.1867)">
<text font-family="sans" font-size="2.4691" text-anchor="start" fill="currentColor">
<tspan>mem</tspan>
</text>
</g>
<g transform="translate(75.2607, 31.3867)">
<text font-family="sans" font-size="2.4691" text-anchor="start" fill="currentColor">
<tspan>di</tspan>
</text>
</g>
<g transform="translate(75.6780, 28.1064)">
<text font-family="sans" font-size="2.2000" text-anchor="start" fill="currentColor">
<tspan>4</tspan>
</text>
</g>
<g transform="translate(29.0788, 31.1867)">
<rect x="0.0000" y="-0.5595" width="0.6600" height="0.1395" ry="0.0429" fill="currentColor"/>
</g>
<g transform="translate(44.8739, 25.3277)">
<polygon stroke-linejoin="round" stroke-linecap="round" stroke-width="0.0889" fill="currentColor" stroke="currentColor" points="8.2480 -0.0306 8.2480 0.0306 0.0444 0.0306 0.0444 -0.0306"/>
</g>
<g transform="translate(19.3191, 38.0039)">
<polygon stroke-linejoin="round" stroke-linecap="round" stroke-width="0.0889" fill="currentColor" stroke="currentColor" points="6.8853 -0.1956 6.8853 0.1956 0.0444 0.1956 0.0444 -0.1956"/>
</g>
<g transform="translate(35.5426, 33.9867)">
<rect x="0.0000" y="-0.5595" width="0.6600" height="0.1395" ry="0.0429" fill="currentColor"/>
</g>
<g transform="translate(34.6416, 31.1867)">
<rect x="0.0000" y="-0.5595" width="0.6600" height="0.1395" ry="0.0429" fill="currentColor"/>
</g>
<g transform="translate(31.4185, 25.3277)">
<polygon stroke-linejoin="round" stroke-linecap="round" stroke-width="0.0889" fill="currentColor" stroke="currentColor" points="8.2480 -0.0306 8.2480 0.0306 0.0444 0.0306 0.0444 -0.0306"/>
</g>
<g transform="translate(48.6282, 31.1867)">
<rect x="0.0000" y="-0.5595" width="0.6600" height="0.1395" ry="0.0429" fill="currentColor"/>
</g>
<g transform="translate(21.4199, 33.9867)">
<rect x="0.0000" y="-0.5595" width="0.6600" height="0.1395" ry="0.0429" fill="currentColor"/>
</g>
<g transform="translate(20.9742, 31.1867)">
<rect x="0.0000" y="-0.5595" width="0.6600" height="0.1395" ry="0.0429" fill="currentColor"/>
</g>
<g transform="translate(17.7131, 25.3277)">
<polygon stroke-linejoin="round" stroke-linecap="round" stroke-width="0.0889" fill="currentColor" stroke="currentColor" points="8.2480 -0.0306 8.2480 0.0306 0.0444 0.0306 0.0444 -0.0306"/>
</g>
<g transform="translate(95.0007, 33.9867)">
<rect x="0.0000" y="-0.5595" width="0.6600" height="0.1395" ry="0.0429" fill="currentColor"/>
</g>
<g transform="translate(94.2230, 31.1867)">
<rect x="0.0000" y="-0.5595" width="0.6600" height="0.1395" ry="0.0429" fill="currentColor"/>
</g>
<g transform="translate(60.1853, 37.0039)">
<polygon stroke-linejoin="round" stroke-linecap="round" stroke-width="0.0889" fill="currentColor" stroke="currentColor" points="6.8853 -0.1956 6.8853 0.1956 0.0444 0.1956 0.0444 -0.1956"/>
</g>
<g transform="translate(82.5154, 33.9867)">
<rect x="0.0000" y="-0.5595" width="0.6600" height="0.1395" ry="0.0429" fill="currentColor"/>
</g>
<g transform="translate(46.4799, 38.0039)">
<polygon stroke-linejoin="round" stroke-linecap="round" stroke-width="0.0889" fill="currentColor" stroke="currentColor" points="6.8853 -0.1956 6.8853 0.1956 0.0444 0.1956 0.0444 -0.1956"/>
</g>
<g transform="translate(62.3051, 33.9867)">
<rect x="0.0000" y="-0.5595" width="0.6600" height="0.1395" ry="0.0429" fill="currentColor"/>
</g>
<g transform="translate(63.2251, 31.1867)">
<rect x="0.0000" y="-0.5595" width="0.6600" height="0.1395" ry="0.0429" fill="currentColor"/>
</g>
<g transform="translate(58.5794, 25.3277)">
<polygon stroke-linejoin="round" stroke-linecap="round" stroke-width="0.0889" fill="currentColor" stroke="currentColor" points="8.2480 -0.0306 8.2480 0.0306 0.0444 0.0306 0.0444 -0.0306"/>
</g>
<g transform="translate(54.9308, 31.1867)">
<rect x="0.0000" y="-0.5595" width="0.6600" height="0.1395" ry="0.0429" fill="currentColor"/>
</g>
<g transform="translate(33.0245, 37.0039)">
<polygon stroke-linejoin="round" stroke-linecap="round" stroke-width="0.0889" fill="currentColor" stroke="currentColor" points="6.8853 -0.1956 6.8853 0.1956 0.0444 0.1956 0.0444 -0.1956"/>
</g>
<g transform="translate(48.3626, 33.9867)">
<rect x="0.0000" y="-0.5595" width="0.6600" height="0.1395" ry="0.0429" fill="currentColor"/>
</g>
<g color="rgba(0.0000%, 0.0000%, 100.0000%, 100.0000%)">
</g>
<g transform="translate(99.9408, 48.0039)">
<rect x="-0.0697" y="-2.1673" width="0.1395" height="3.1673" ry="0.0444" fill="currentColor"/>
</g>
<g transform="translate(101.5332, 39.0039)">
<rect x="-0.0697" y="-1.0000" width="0.1395" height="3.1673" ry="0.0444" fill="currentColor"/>
</g>
<g transform="translate(99.8710, 45.5039)">
<path transform="scale(0.0050, -0.0050)" d="M305 38c8 9 10 18 10 27c0 23 -20 42 -43 42c-4 0 -8 0 -12 -1c-31 -9 -78 -40 -115 -64s-85 -55 -106 -80c-8 -9 -11 -18 -11 -27c0 -23 21 -42 44 -42c4 0 7 0 11 1c31 9 79 40 116 64s85 55 106 80zM263 135c45 0 81 -20 81 -69c0 -19 -5 -38 -11 -56
c-12 -37 -33 -73 -65 -95c-53 -36 -114 -50 -188 -50c-45 0 -80 20 -80 69c0 19 5 38 11 56c12 37 32 73 64 95c53 36 114 50 188 50z" fill="currentColor"/>
</g>
<g transform="translate(99.8710, 41.5039)">
<path transform="scale(0.0050, -0.0050)" d="M305 38c8 9 10 18 10 27c0 23 -20 42 -43 42c-4 0 -8 0 -12 -1c-31 -9 -78 -40 -115 -64s-85 -55 -106 -80c-8 -9 -11 -18 -11 -27c0 -23 21 -42 44 -42c4 0 7 0 11 1c31 9 79 40 116 64s85 55 106 80zM263 135c45 0 81 -20 81 -69c0 -19 -5 -38 -11 -56
c-12 -37 -33 -73 -65 -95c-53 -36 -114 -50 -188 -50c-45 0 -80 20 -80 69c0 19 5 38 11 56c12 37 32 73 64 95c53 36 114 50 188 50z" fill="currentColor"/>
</g>
<g transform="translate(99.8710, 34.1867)">
<text font-family="sans" font-size="2.4691" text-anchor="start" fill="currentColor">
<tspan>tang,</tspan>
</text>
</g>
<g transform="translate(99.8710, 31.3867)">
<text font-family="sans" font-size="2.4691" text-anchor="start" fill="currentColor">
<tspan>wan,</tspan>
</text>
</g>
<g transform="translate(87.8442, 48.0039)">
<rect x="-0.0697" y="-2.7582" width="0.1395" height="3.2582" ry="0.0444" fill="currentColor"/>
</g>
<g color="rgba(0.0000%, 0.0000%, 100.0000%, 100.0000%)">
</g>
<g transform="translate(112.3071, 27.8564)">
<circle stroke-linejoin="round" stroke-linecap="round" fill="currentColor" stroke="currentColor" stroke-width="0.0010" r="0.1800"/>
</g>
<g color="rgba(0.0000%, 0.0000%, 100.0000%, 100.0000%)">
</g>
<g transform="translate(24.6044, 41.0039)">
<path transform="scale(0.0050, -0.0050)" d="M219 135c54 0 107 -27 107 -87c0 -18 -5 -37 -13 -54c-32 -66 -114 -129 -206 -129c-54 0 -107 27 -107 87c0 18 5 37 13 54c32 66 114 129 206 129z" fill="currentColor"/>
</g>
<g transform="translate(23.2766, 34.1867)">
<text font-family="sans" font-size="2.4691" text-anchor="start" fill="currentColor">
<tspan>tan</tspan>
</text>
</g>
<g transform="translate(22.4610, 31.3867)">
<text font-family="sans" font-size="2.4691" text-anchor="start" fill="currentColor">
<tspan>rung</tspan>
</text>
</g>
<g transform="translate(24.6044, 28.1064)">
<text font-family="sans" font-size="2.2000" text-anchor="start" fill="currentColor">
<tspan>3</tspan>
</text>
</g>
<g transform="translate(17.8840, 48.0039)">
<rect x="-0.0697" y="-2.7582" width="0.1395" height="3.2582" ry="0.0444" fill="currentColor"/>
</g>
<g transform="translate(31.5196, 40.0039)">
<path transform="scale(0.0050, -0.0050)" d="M219 135c54 0 107 -27 107 -87c0 -18 -5 -37 -13 -54c-32 -66 -114 -129 -206 -129c-54 0 -107 27 -107 87c0 18 5 37 13 54c32 66 114 129 206 129z" fill="currentColor"/>
</g>
<g transform="translate(33.0942, 39.0039)">
<rect x="-0.0697" y="-2.0000" width="0.1395" height="2.7582" ry="0.0444" fill="currentColor"/>
</g>
<g color="rgba(0.0000%, 0.0000%, 100.0000%, 100.0000%)">
</g>
<g transform="translate(31.5196, 44.0039)">
<path transform="scale(0.0050, -0.0050)" d="M219 135c54 0 107 -27 107 -87c0 -18 -5 -37 -13 -54c-32 -66 -114 -129 -206 -129c-54 0 -107 27 -107 87c0 18 5 37 13 54c32 66 114 129 206 129z" fill="currentColor"/>
</g>
<g transform="translate(30.1729, 34.1867)">
<text font-family="sans" font-size="2.4691" text-anchor="start" fill="currentColor">
<tspan>rim</tspan>
</text>
</g>
<g transform="translate(30.6661, 31.3867)">
<text font-family="sans" font-size="2.4691" text-anchor="start" fill="currentColor">
<tspan>bu</tspan>
</text>
</g>
<g transform="translate(31.5196, 28.1064)">
<text font-family="sans" font-size="2.2000" text-anchor="start" fill="currentColor">
<tspan>5</tspan>
</text>
</g>
<g transform="translate(26.1790, 39.0039)">
<rect x="-0.0697" y="-1.0000" width="0.1395" height="2.7582" ry="0.0444" fill="currentColor"/>
</g>
<g transform="translate(16.8089, 34.1867)">
<text font-family="sans" font-size="2.4691" text-anchor="start" fill="currentColor">
<tspan>Hu</tspan>
</text>
</g>
<g transform="translate(16.8848, 31.3867)">
<text font-family="sans" font-size="2.4691" text-anchor="start" fill="currentColor">
<tspan>Bu</tspan>
</text>
</g>
<g transform="translate(17.8142, 28.1064)">
<text font-family="sans" font-size="2.2000" text-anchor="start" fill="currentColor">
<tspan>3</tspan>
</text>
</g>
<g transform="translate(17.8142, 41.0039)">
<path transform="scale(0.0050, -0.0050)" d="M219 135c54 0 107 -27 107 -87c0 -18 -5 -37 -13 -54c-32 -66 -114 -129 -206 -129c-54 0 -107 27 -107 87c0 18 5 37 13 54c32 66 114 129 206 129z" fill="currentColor"/>
</g>
<g transform="translate(9.3804, 37.4802)">
<rect x="0.0000" y="-12.5774" width="0.2039" height="25.1548" ry="0.0537" fill="currentColor"/>
</g>
<g transform="translate(9.0804, 43.5039)">
<path transform="scale(0.0045, -0.0045)" d="M-177 -1011c0 237 96 465 96 687c0 120 -27 234 -117 318c-3 3 -3 3 -3 6s0 3 3 6c90 84 117 198 117 318c0 222 -96 450 -96 687c0 171 42 333 165 450c3 3 9 3 12 3c9 0 15 -6 15 -15c0 -3 0 -9 -3 -12c-90 -87 -120 -198 -120 -318c0 -219 90 -444 90 -675
c0 -168 -42 -327 -159 -444c117 -117 159 -276 159 -444c0 -231 -90 -456 -90 -675c0 -120 30 -231 120 -318c3 -3 3 -9 3 -12c0 -9 -6 -15 -15 -15c-3 0 -9 0 -12 3c-123 117 -165 279 -165 450z" fill="currentColor"/>
</g>
<g transform="translate(19.3888, 39.0039)">
<rect x="-0.0697" y="-1.0000" width="0.1395" height="2.7582" ry="0.0444" fill="currentColor"/>
</g>
<g color="rgba(0.0000%, 0.0000%, 100.0000%, 100.0000%)">
</g>
<g transform="translate(14.4875, 23.5792)">
<rect x="1.0431" y="-2.6727" width="0.1158" height="2.5200" ry="0.0193" fill="currentColor"/>
</g>
<g transform="translate(14.4875, 23.5792)">
<path transform="scale(0.0036, -0.0036)" d="M211 138c59 0 114 -30 114 -95c0 -18 -4 -36 -12 -53c-29 -66 -109 -128 -199 -128c-59 0 -114 30 -114 95c0 18 4 36 12 53c29 66 109 128 199 128z" fill="currentColor"/>
</g>
<g transform="translate(15.6464, 24.0716)">
<text font-family="serif" font-size="2.2000" text-anchor="start" fill="currentColor">
<tspan> = 90</tspan>
</text>
</g>
<g transform="translate(14.4875, 48.0039)">
<path transform="scale(0.0040, -0.0040)" d="M194 120h120c0 -49 29 -95 75 -95c8 0 12 -7 12 -13s-4 -12 -12 -12c-45 0 -90 13 -135 13s-90 -13 -135 -13c-8 0 -12 6 -12 12s4 13 12 13c46 0 75 46 75 95zM203 301c22 15 45 30 61 51c12 15 19 34 27 51c2 4 5 6 9 6c6 0 14 -6 14 -15v-238h74c10 0 16 -8 16 -16
s-6 -15 -16 -15h-74v-5h-120v5h-163c-24 0 -33 15 -33 24c0 3 1 6 2 7c80 92 134 205 134 327c0 10 6 17 14 17h3c24 -7 48 -13 73 -13s48 6 72 13c2 1 4 1 6 1c9 0 14 -7 14 -13c0 -2 0 -3 -2 -5l-283 -327h163v122c0 9 2 18 9 23z" fill="currentColor"/>
</g>
<g transform="translate(14.4875, 50.0039)">
<path transform="scale(0.0040, -0.0040)" d="M194 120h120c0 -49 29 -95 75 -95c8 0 12 -7 12 -13s-4 -12 -12 -12c-45 0 -90 13 -135 13s-90 -13 -135 -13c-8 0 -12 6 -12 12s4 13 12 13c46 0 75 46 75 95zM203 301c22 15 45 30 61 51c12 15 19 34 27 51c2 4 5 6 9 6c6 0 14 -6 14 -15v-238h74c10 0 16 -8 16 -16
s-6 -15 -16 -15h-74v-5h-120v5h-163c-24 0 -33 15 -33 24c0 3 1 6 2 7c80 92 134 205 134 327c0 10 6 17 14 17h3c24 -7 48 -13 73 -13s48 6 72 13c2 1 4 1 6 1c9 0 14 -7 14 -13c0 -2 0 -3 -2 -5l-283 -327h163v122c0 9 2 18 9 23z" fill="currentColor"/>
</g>
<g transform="translate(10.2843, 47.0039)">
<path transform="scale(0.0040, -0.0040)" d="M558 -125c0 28 22 51 50 51s51 -23 51 -51s-23 -51 -51 -51s-50 23 -50 51zM558 125c0 28 22 51 50 51s51 -23 51 -51s-23 -51 -51 -51s-50 23 -50 51zM231 264c172 0 294 -88 294 -251c0 -263 -262 -416 -515 -523c-3 -3 -7 -4 -10 -4c-7 0 -14 7 -14 14c0 3 1 7 4 10
c201 118 410 265 410 492c0 119 -61 234 -169 234c-72 0 -124 -53 -148 -123c10 4 19 6 29 6c55 0 100 -45 100 -100c0 -58 -44 -106 -100 -106c-60 0 -112 47 -112 106c0 133 101 245 231 245z" fill="currentColor"/>
</g>
<g transform="translate(17.8142, 45.0039)">
<path transform="scale(0.0050, -0.0050)" d="M219 135c54 0 107 -27 107 -87c0 -18 -5 -37 -13 -54c-32 -66 -114 -129 -206 -129c-54 0 -107 27 -107 87c0 18 5 37 13 54c32 66 114 129 206 129z" fill="currentColor"/>
</g>
<g transform="translate(14.4875, 39.0039)">
<path transform="scale(0.0040, -0.0040)" d="M194 120h120c0 -49 29 -95 75 -95c8 0 12 -7 12 -13s-4 -12 -12 -12c-45 0 -90 13 -135 13s-90 -13 -135 -13c-8 0 -12 6 -12 12s4 13 12 13c46 0 75 46 75 95zM203 301c22 15 45 30 61 51c12 15 19 34 27 51c2 4 5 6 9 6c6 0 14 -6 14 -15v-238h74c10 0 16 -8 16 -16
s-6 -15 -16 -15h-74v-5h-120v5h-163c-24 0 -33 15 -33 24c0 3 1 6 2 7c80 92 134 205 134 327c0 10 6 17 14 17h3c24 -7 48 -13 73 -13s48 6 72 13c2 1 4 1 6 1c9 0 14 -7 14 -13c0 -2 0 -3 -2 -5l-283 -327h163v122c0 9 2 18 9 23z" fill="currentColor"/>
</g>
<g transform="translate(14.4875, 41.0039)">
<path transform="scale(0.0040, -0.0040)" d="M194 120h120c0 -49 29 -95 75 -95c8 0 12 -7 12 -13s-4 -12 -12 -12c-45 0 -90 13 -135 13s-90 -13 -135 -13c-8 0 -12 6 -12 12s4 13 12 13c46 0 75 46 75 95zM203 301c22 15 45 30 61 51c12 15 19 34 27 51c2 4 5 6 9 6c6 0 14 -6 14 -15v-238h74c10 0 16 -8 16 -16
s-6 -15 -16 -15h-74v-5h-120v5h-163c-24 0 -33 15 -33 24c0 3 1 6 2 7c80 92 134 205 134 327c0 10 6 17 14 17h3c24 -7 48 -13 73 -13s48 6 72 13c2 1 4 1 6 1c9 0 14 -7 14 -13c0 -2 0 -3 -2 -5l-283 -327h163v122c0 9 2 18 9 23z" fill="currentColor"/>
</g>
<g transform="translate(10.2843, 40.0039)">
<path transform="scale(0.0040, -0.0040)" d="M248 554c-30 96 -54 193 -54 311c0 141 41 248 149 326c3 2 7 3 11 3s8 -1 11 -4c71 -83 134 -244 134 -357c0 -143 -85 -255 -178 -364c21 -68 40 -137 57 -206c4 0 8 1 12 1c156 0 256 -129 256 -262c0 -77 -34 -154 -108 -210c-22 -17 -46 -29 -72 -37
c3 -34 5 -68 5 -102c0 -20 -1 -40 -2 -60c-7 -121 -90 -228 -209 -228c-108 0 -196 87 -196 196c0 58 53 104 112 104c54 0 95 -48 95 -104c0 -52 -43 -95 -95 -95c-10 0 -20 2 -29 6c26 -38 68 -63 116 -63h3c93 2 153 92 159 190c1 19 2 37 2 56c0 30 -2 60 -4 90
c-29 -5 -58 -8 -88 -8c-188 0 -333 173 -333 375c0 177 130 307 246 442zM403 150c24 -115 46 -230 59 -352c76 28 110 92 110 159c0 89 -61 181 -169 193zM75 26c0 -134 129 -245 263 -245c28 0 55 2 81 6c-14 126 -36 244 -61 363c-79 -8 -124 -61 -124 -119
c0 -43 25 -89 80 -121c5 -5 7 -11 7 -16c0 -12 -10 -23 -22 -23c-3 0 -6 1 -9 2c-81 43 -118 116 -118 186c0 89 58 175 161 198c-14 58 -29 116 -46 173c-106 -122 -212 -244 -212 -404zM406 1042c-102 -49 -161 -144 -161 -261c0 -70 19 -129 37 -187
c78 96 145 200 145 325c0 39 -7 80 -21 123z" fill="currentColor"/>
</g>
<g color="rgba(0.0000%, 0.0000%, 100.0000%, 100.0000%)">
</g>
<g transform="translate(51.7653, 41.0039)">
<path transform="scale(0.0050, -0.0050)" d="M219 135c54 0 107 -27 107 -87c0 -18 -5 -37 -13 -54c-32 -66 -114 -129 -206 -129c-54 0 -107 27 -107 87c0 18 5 37 13 54c32 66 114 129 206 129z" fill="currentColor"/>
</g>
<g transform="translate(50.5892, 34.1867)">
<text font-family="sans" font-size="2.4691" text-anchor="start" fill="currentColor">
<tspan>jau</tspan>
</text>
</g>
<g transform="translate(50.7030, 31.3867)">
<text font-family="sans" font-size="2.4691" text-anchor="start" fill="currentColor">
<tspan>ter</tspan>
</text>
</g>
<g transform="translate(51.7653, 28.1064)">
<text font-family="sans" font-size="2.2000" text-anchor="start" fill="currentColor">
<tspan>3</tspan>
</text>
</g>
<g transform="translate(45.0448, 48.0039)">
<rect x="-0.0697" y="-2.7582" width="0.1395" height="3.2582" ry="0.0444" fill="currentColor"/>
</g>
<g transform="translate(46.5497, 39.0039)">
<rect x="-0.0697" y="-1.0000" width="0.1395" height="2.7582" ry="0.0444" fill="currentColor"/>
</g>
<g transform="translate(58.2632, 34.1867)">
<text font-family="sans" font-size="2.4691" text-anchor="start" fill="currentColor">
<tspan>lu</tspan>
</text>
</g>
<g transform="translate(60.2551, 39.0039)">
<rect x="-0.0697" y="-2.0000" width="0.1395" height="2.7582" ry="0.0444" fill="currentColor"/>
</g>
<g color="rgba(0.0000%, 0.0000%, 100.0000%, 100.0000%)">
</g>
<g transform="translate(58.6805, 44.0039)">
<path transform="scale(0.0050, -0.0050)" d="M219 135c54 0 107 -27 107 -87c0 -18 -5 -37 -13 -54c-32 -66 -114 -129 -206 -129c-54 0 -107 27 -107 87c0 18 5 37 13 54c32 66 114 129 206 129z" fill="currentColor"/>
</g>
<g transform="translate(58.6805, 40.0039)">
<path transform="scale(0.0050, -0.0050)" d="M219 135c54 0 107 -27 107 -87c0 -18 -5 -37 -13 -54c-32 -66 -114 -129 -206 -129c-54 0 -107 27 -107 87c0 18 5 37 13 54c32 66 114 129 206 129z" fill="currentColor"/>
</g>
<g transform="translate(56.2904, 31.3867)">
<text font-family="sans" font-size="2.4691" text-anchor="start" fill="currentColor">
<tspan>bang</tspan>
</text>
</g>
<g transform="translate(58.6805, 28.1064)">
<text font-family="sans" font-size="2.2000" text-anchor="start" fill="currentColor">
<tspan>5</tspan>
</text>
</g>
<g transform="translate(53.3399, 39.0039)">
<rect x="-0.0697" y="-1.0000" width="0.1395" height="2.7582" ry="0.0444" fill="currentColor"/>
</g>
<g transform="translate(36.1664, 31.3867)">
<text font-family="sans" font-size="2.4691" text-anchor="start" fill="currentColor">
<tspan>rung</tspan>
</text>
</g>
<g transform="translate(39.8844, 39.0039)">
<rect x="-0.0697" y="-2.0000" width="0.1395" height="2.7582" ry="0.0444" fill="currentColor"/>
</g>
<g color="rgba(0.0000%, 0.0000%, 100.0000%, 100.0000%)">
</g>
<g transform="translate(38.3098, 40.0039)">
<path transform="scale(0.0050, -0.0050)" d="M219 135c54 0 107 -27 107 -87c0 -18 -5 -37 -13 -54c-32 -66 -114 -129 -206 -129c-54 0 -107 27 -107 87c0 18 5 37 13 54c32 66 114 129 206 129z" fill="currentColor"/>
</g>
<g transform="translate(37.4752, 34.1867)">
<text font-family="sans" font-size="2.4691" text-anchor="start" fill="currentColor">
<tspan>ba</tspan>
</text>
</g>
<g transform="translate(38.3098, 28.1064)">
<text font-family="sans" font-size="2.2000" text-anchor="start" fill="currentColor">
<tspan>5</tspan>
</text>
</g>
<g transform="translate(31.5894, 48.0039)">
<rect x="-0.0697" y="-3.7582" width="0.1395" height="3.7582" ry="0.0444" fill="currentColor"/>
</g>
<g transform="translate(44.9751, 41.0039)">
<path transform="scale(0.0050, -0.0050)" d="M219 135c54 0 107 -27 107 -87c0 -18 -5 -37 -13 -54c-32 -66 -114 -129 -206 -129c-54 0 -107 27 -107 87c0 18 5 37 13 54c32 66 114 129 206 129z" fill="currentColor"/>
</g>
<g transform="translate(44.5577, 34.1867)">
<text font-family="sans" font-size="2.4691" text-anchor="start" fill="currentColor">
<tspan>hi</tspan>
</text>
</g>
<g transform="translate(44.1404, 31.3867)">
<text font-family="sans" font-size="2.4691" text-anchor="start" fill="currentColor">
<tspan>be</tspan>
</text>
</g>
<g transform="translate(44.9751, 28.1064)">
<text font-family="sans" font-size="2.2000" text-anchor="start" fill="currentColor">
<tspan>3</tspan>
</text>
</g>
<g transform="translate(44.9751, 45.0039)">
<path transform="scale(0.0050, -0.0050)" d="M219 135c54 0 107 -27 107 -87c0 -18 -5 -37 -13 -54c-32 -66 -114 -129 -206 -129c-54 0 -107 27 -107 87c0 18 5 37 13 54c32 66 114 129 206 129z" fill="currentColor"/>
</g>
<g color="rgba(0.0000%, 0.0000%, 100.0000%, 100.0000%)">
</g>
<g transform="translate(123.0914, 57.9503)">
<rect x="0.0000" y="16.3321" width="0.2039" height="4.9463" ry="0.0000" fill="currentColor"/>
</g>
<g transform="translate(78.5897, 57.9503)">
<rect x="0.0000" y="16.3321" width="0.2039" height="4.9463" ry="0.0000" fill="currentColor"/>
</g>
<g transform="translate(57.4083, 57.9503)">
<rect x="0.0000" y="16.3321" width="0.2039" height="4.9463" ry="0.0000" fill="currentColor"/>
</g>
<g transform="translate(123.0914, 81.2287)">
<rect x="0.0000" y="-2.0537" width="0.2039" height="4.0537" ry="0.0000" fill="currentColor"/>
</g>
<g transform="translate(57.4083, 60.0039)">
<rect x="0.0000" y="-2.0000" width="0.2039" height="4.0000" ry="0.0000" fill="currentColor"/>
</g>
<g transform="translate(123.0914, 72.2287)">
<rect x="0.0000" y="-2.0000" width="0.2039" height="4.0537" ry="0.0000" fill="currentColor"/>
</g>
<g transform="translate(123.0914, 60.0039)">
<rect x="0.0000" y="-2.0000" width="0.2039" height="4.0000" ry="0.0000" fill="currentColor"/>
</g>
<g transform="translate(57.4083, 72.2287)">
<rect x="0.0000" y="-2.0000" width="0.2039" height="4.0537" ry="0.0000" fill="currentColor"/>
</g>
<g transform="translate(57.4083, 81.2287)">
<rect x="0.0000" y="-2.0537" width="0.2039" height="4.0537" ry="0.0000" fill="currentColor"/>
</g>
<g transform="translate(78.5897, 81.2287)">
<rect x="0.0000" y="-2.0537" width="0.2039" height="4.0537" ry="0.0000" fill="currentColor"/>
</g>
<g transform="translate(78.5897, 72.2287)">
<rect x="0.0000" y="-2.0000" width="0.2039" height="4.0537" ry="0.0000" fill="currentColor"/>
</g>
<g transform="translate(78.5897, 60.0039)">
<rect x="0.0000" y="-2.0000" width="0.2039" height="4.0000" ry="0.0000" fill="currentColor"/>
</g>
<g transform="translate(9.4843, 83.2287)">
<line stroke-linejoin="round" stroke-linecap="round" stroke-width="0.1073" stroke="currentColor" x1="0.0537" y1="0" x2="113.7574" y2="0"/>
</g>
<g transform="translate(9.4843, 82.2287)">
<line stroke-linejoin="round" stroke-linecap="round" stroke-width="0.1073" stroke="currentColor" x1="0.0537" y1="0" x2="113.7574" y2="0"/>
</g>
<g transform="translate(9.4843, 81.2287)">
<line stroke-linejoin="round" stroke-linecap="round" stroke-width="0.1073" stroke="currentColor" x1="0.0537" y1="0" x2="113.7574" y2="0"/>
</g>
<g transform="translate(9.4843, 80.2287)">
<line stroke-linejoin="round" stroke-linecap="round" stroke-width="0.1073" stroke="currentColor" x1="0.0537" y1="0" x2="113.7574" y2="0"/>
</g>
<g transform="translate(9.4843, 79.2287)">
<line stroke-linejoin="round" stroke-linecap="round" stroke-width="0.1073" stroke="currentColor" x1="0.0537" y1="0" x2="113.7574" y2="0"/>
</g>
<g transform="translate(9.4843, 74.2287)">
<line stroke-linejoin="round" stroke-linecap="round" stroke-width="0.1073" stroke="currentColor" x1="0.0537" y1="0" x2="113.7574" y2="0"/>
</g>
<g transform="translate(9.4843, 73.2287)">
<line stroke-linejoin="round" stroke-linecap="round" stroke-width="0.1073" stroke="currentColor" x1="0.0537" y1="0" x2="113.7574" y2="0"/>
</g>
<g transform="translate(9.4843, 72.2287)">
<line stroke-linejoin="round" stroke-linecap="round" stroke-width="0.1073" stroke="currentColor" x1="0.0537" y1="0" x2="113.7574" y2="0"/>
</g>
<g transform="translate(9.4843, 71.2287)">
<line stroke-linejoin="round" stroke-linecap="round" stroke-width="0.1073" stroke="currentColor" x1="0.0537" y1="0" x2="113.7574" y2="0"/>
</g>
<g transform="translate(9.4843, 70.2287)">
<line stroke-linejoin="round" stroke-linecap="round" stroke-width="0.1073" stroke="currentColor" x1="0.0537" y1="0" x2="113.7574" y2="0"/>
</g>
<g transform="translate(9.4843, 77.2287)">
<rect x="104.8395" y="-0.1037" width="2.4665" height="0.2073" ry="0.1037" fill="currentColor"/>
</g>
<g transform="translate(9.4843, 78.2287)">
<rect x="104.8395" y="-0.1037" width="2.4665" height="0.2073" ry="0.1037" fill="currentColor"/>
</g>
<g transform="translate(9.4843, 78.2287)">
<rect x="92.4690" y="-0.1037" width="2.4665" height="0.2073" ry="0.1037" fill="currentColor"/>
</g>
<g transform="translate(9.4843, 77.2287)">
<rect x="80.7056" y="-0.1037" width="2.4665" height="0.2073" ry="0.1037" fill="currentColor"/>
</g>
<g transform="translate(9.4843, 78.2287)">
<rect x="80.7056" y="-0.1037" width="2.4665" height="0.2073" ry="0.1037" fill="currentColor"/>
</g>
<g transform="translate(9.4843, 78.2287)">
<rect x="70.3458" y="-0.1037" width="2.4665" height="0.2073" ry="0.1037" fill="currentColor"/>
</g>
<g transform="translate(9.4843, 77.2287)">
<rect x="59.9391" y="-0.1037" width="2.5979" height="0.2073" ry="0.1037" fill="currentColor"/>
</g>
<g transform="translate(9.4843, 78.2287)">
<rect x="59.9391" y="-0.1037" width="2.5979" height="0.2073" ry="0.1037" fill="currentColor"/>
</g>
<g transform="translate(9.4843, 78.2287)">
<rect x="55.1080" y="-0.1037" width="2.4665" height="0.2073" ry="0.1037" fill="currentColor"/>
</g>
<g transform="translate(9.4843, 78.2287)">
<rect x="49.2574" y="-0.1037" width="2.4665" height="0.2073" ry="0.1037" fill="currentColor"/>
</g>
<g transform="translate(9.4843, 78.2287)">
<rect x="38.7785" y="-0.1037" width="2.4665" height="0.2073" ry="0.1037" fill="currentColor"/>
</g>
<g transform="translate(9.4843, 78.2287)">
<rect x="17.1158" y="-0.1037" width="2.4665" height="0.2073" ry="0.1037" fill="currentColor"/>
</g>
<g transform="translate(90.6707, 81.2287)">
<rect x="-0.0697" y="-3.7582" width="0.1395" height="3.7582" ry="0.0444" fill="currentColor"/>
</g>
<g transform="translate(92.1755, 72.2287)">
<rect x="-0.0697" y="-2.0000" width="0.1395" height="2.7582" ry="0.0444" fill="currentColor"/>
</g>
<g color="rgba(0.0000%, 0.0000%, 100.0000%, 100.0000%)">
</g>
<g transform="translate(90.6009, 77.2287)">
<path transform="scale(0.0050, -0.0050)" d="M219 135c54 0 107 -27 107 -87c0 -18 -5 -37 -13 -54c-32 -66 -114 -129 -206 -129c-54 0 -107 27 -107 87c0 18 5 37 13 54c32 66 114 129 206 129z" fill="currentColor"/>
</g>
<g transform="translate(90.6009, 73.2287)">
<path transform="scale(0.0050, -0.0050)" d="M219 135c54 0 107 -27 107 -87c0 -18 -5 -37 -13 -54c-32 -66 -114 -129 -206 -129c-54 0 -107 27 -107 87c0 18 5 37 13 54c32 66 114 129 206 129z" fill="currentColor"/>
</g>
<g transform="translate(88.9886, 67.2342)">
<text font-family="sans" font-size="2.4691" text-anchor="start" fill="currentColor">
<tspan>dan</tspan>
</text>
</g>
<g transform="translate(90.5440, 64.4342)">
<text font-family="sans" font-size="2.4691" text-anchor="start" fill="currentColor">
<tspan>a</tspan>
</text>
</g>
<g transform="translate(90.6009, 61.1539)">
<text font-family="sans" font-size="2.2000" text-anchor="start" fill="currentColor">
<tspan>5</tspan>
</text>
</g>
<g transform="translate(102.4341, 81.2287)">
<rect x="-0.0697" y="-2.7582" width="0.1395" height="3.2582" ry="0.0444" fill="currentColor"/>
</g>
<g transform="translate(108.0822, 67.2342)">
<text font-family="sans" font-size="2.4691" text-anchor="start" fill="currentColor">
<tspan>nya</tspan>
</text>
</g>
<g color="rgba(0.0000%, 0.0000%, 100.0000%, 100.0000%)">
</g>
<g transform="translate(103.9390, 72.2287)">
<rect x="-0.0697" y="-1.0000" width="0.1395" height="2.7582" ry="0.0444" fill="currentColor"/>
</g>
<g transform="translate(102.3644, 78.2287)">
<path transform="scale(0.0050, -0.0050)" d="M219 135c54 0 107 -27 107 -87c0 -18 -5 -37 -13 -54c-32 -66 -114 -129 -206 -129c-54 0 -107 27 -107 87c0 18 5 37 13 54c32 66 114 129 206 129z" fill="currentColor"/>
</g>
<g transform="translate(102.3644, 74.2287)">
<path transform="scale(0.0050, -0.0050)" d="M219 135c54 0 107 -27 107 -87c0 -18 -5 -37 -13 -54c-32 -66 -114 -129 -206 -129c-54 0 -107 27 -107 87c0 18 5 37 13 54c32 66 114 129 206 129z" fill="currentColor"/>
</g>
<g transform="translate(102.0798, 67.2342)">
<text font-family="sans" font-size="2.4691" text-anchor="start" fill="currentColor">
<tspan>si</tspan>
</text>
</g>
<g transform="translate(99.6139, 64.4342)">
<text font-family="sans" font-size="2.4691" text-anchor="start" fill="currentColor">
<tspan>makh</tspan>
</text>
</g>
<g transform="translate(102.3644, 61.1539)">
<text font-family="sans" font-size="2.2000" text-anchor="start" fill="currentColor">
<tspan>3</tspan>
</text>
</g>
<g transform="translate(97.2105, 72.2287)">
<rect x="-0.0697" y="-2.0000" width="0.1395" height="2.7582" ry="0.0444" fill="currentColor"/>
</g>
<g color="rgba(0.0000%, 0.0000%, 100.0000%, 100.0000%)">
</g>
<g transform="translate(95.6359, 73.2287)">
<path transform="scale(0.0050, -0.0050)" d="M219 135c54 0 107 -27 107 -87c0 -18 -5 -37 -13 -54c-32 -66 -114 -129 -206 -129c-54 0 -107 27 -107 87c0 18 5 37 13 54c32 66 114 129 206 129z" fill="currentColor"/>
</g>
<g transform="translate(95.9963, 67.2342)">
<text font-family="sans" font-size="2.4691" text-anchor="start" fill="currentColor">
<tspan>i</tspan>
</text>
</g>
<g transform="translate(94.0615, 64.4342)">
<text font-family="sans" font-size="2.4691" text-anchor="start" fill="currentColor">
<tspan>nya</tspan>
</text>
</g>
<g transform="translate(95.6359, 61.1539)">
<text font-family="sans" font-size="2.2000" text-anchor="start" fill="currentColor">
<tspan>5</tspan>
</text>
</g>
<g color="rgba(0.0000%, 0.0000%, 100.0000%, 100.0000%)">
</g>
<g transform="translate(80.2411, 78.2287)">
<path transform="scale(0.0050, -0.0050)" d="M219 135c54 0 107 -27 107 -87c0 -18 -5 -37 -13 -54c-32 -66 -114 -129 -206 -129c-54 0 -107 27 -107 87c0 18 5 37 13 54c32 66 114 129 206 129z" fill="currentColor"/>
</g>
<g transform="translate(80.2411, 74.2287)">
<path transform="scale(0.0050, -0.0050)" d="M219 135c54 0 107 -27 107 -87c0 -18 -5 -37 -13 -54c-32 -66 -114 -129 -206 -129c-54 0 -107 27 -107 87c0 18 5 37 13 54c32 66 114 129 206 129z" fill="currentColor"/>
</g>
<g transform="translate(79.3117, 67.2342)">
<text font-family="sans" font-size="2.4691" text-anchor="start" fill="currentColor">
<tspan>Bu</tspan>
</text>
</g>
<g transform="translate(79.4065, 64.4342)">
<text font-family="sans" font-size="2.4691" text-anchor="start" fill="currentColor">
<tspan>Se</tspan>
</text>
</g>
<g transform="translate(80.2411, 61.1539)">
<text font-family="sans" font-size="2.2000" text-anchor="start" fill="currentColor">
<tspan>3</tspan>
</text>
</g>
<g color="rgba(0.0000%, 0.0000%, 100.0000%, 100.0000%)">
</g>
<g transform="translate(75.0489, 60.9039)">
<circle stroke-linejoin="round" stroke-linecap="round" fill="currentColor" stroke="currentColor" stroke-width="0.0010" r="0.1800"/>
</g>
<g transform="translate(69.9261, 81.2287)">
<rect x="-0.0697" y="-3.6673" width="0.1395" height="3.6673" ry="0.0444" fill="currentColor"/>
</g>
<g transform="translate(87.3249, 72.2287)">
<rect x="-0.0697" y="-1.0000" width="0.1395" height="2.7582" ry="0.0444" fill="currentColor"/>
</g>
<g color="rgba(0.0000%, 0.0000%, 100.0000%, 100.0000%)">
</g>
<g transform="translate(85.7503, 74.2287)">
<path transform="scale(0.0050, -0.0050)" d="M219 135c54 0 107 -27 107 -87c0 -18 -5 -37 -13 -54c-32 -66 -114 -129 -206 -129c-54 0 -107 27 -107 87c0 18 5 37 13 54c32 66 114 129 206 129z" fill="currentColor"/>
</g>
<g transform="translate(84.9157, 67.2342)">
<text font-family="sans" font-size="2.4691" text-anchor="start" fill="currentColor">
<tspan>mi</tspan>
</text>
</g>
<g transform="translate(84.4794, 64.4342)">
<text font-family="sans" font-size="2.4691" text-anchor="start" fill="currentColor">
<tspan>mu</tspan>
</text>
</g>
<g transform="translate(85.7503, 61.1539)">
<text font-family="sans" font-size="2.2000" text-anchor="start" fill="currentColor">
<tspan>3</tspan>
</text>
</g>
<g transform="translate(80.3109, 81.2287)">
<rect x="-0.0697" y="-2.7582" width="0.1395" height="3.2582" ry="0.0444" fill="currentColor"/>
</g>
<g transform="translate(81.8157, 72.2287)">
<rect x="-0.0697" y="-1.0000" width="0.1395" height="2.7582" ry="0.0444" fill="currentColor"/>
</g>
<g transform="translate(63.2561, 67.0342)">
<rect x="0.0000" y="-0.5595" width="0.6600" height="0.1395" ry="0.0429" fill="currentColor"/>
</g>
<g transform="translate(62.3645, 64.2342)">
<rect x="0.0000" y="-0.5595" width="0.6600" height="0.1395" ry="0.0429" fill="currentColor"/>
</g>
<g transform="translate(38.4016, 71.4151)">
<polygon stroke-linejoin="round" stroke-linecap="round" stroke-width="0.0889" fill="currentColor" stroke="currentColor" points="5.5473 -0.1956 5.5473 0.1956 0.0444 0.1956 0.0444 -0.1956"/>
</g>
<g transform="translate(51.5184, 67.0342)">
<rect x="0.0000" y="-0.5595" width="0.6600" height="0.1395" ry="0.0429" fill="currentColor"/>
</g>
<g transform="translate(48.5727, 58.3753)">
<polygon stroke-linejoin="round" stroke-linecap="round" stroke-width="0.0889" fill="currentColor" stroke="currentColor" points="6.6688 -0.0306 6.6688 0.0306 0.0444 0.0306 0.0444 -0.0306"/>
</g>
<g transform="translate(45.9497, 67.0342)">
<rect x="0.0000" y="-0.5595" width="0.6600" height="0.1395" ry="0.0429" fill="currentColor"/>
</g>
<g transform="translate(44.9538, 64.2342)">
<rect x="0.0000" y="-0.5595" width="0.6600" height="0.1395" ry="0.0429" fill="currentColor"/>
</g>
<g transform="translate(28.5160, 70.4151)">
<polygon stroke-linejoin="round" stroke-linecap="round" stroke-width="0.0889" fill="currentColor" stroke="currentColor" points="5.2059 -0.1956 5.2059 0.1956 0.0444 0.1956 0.0444 -0.1956"/>
</g>
<g transform="translate(40.3172, 67.0342)">
<rect x="0.0000" y="-0.5595" width="0.6600" height="0.1395" ry="0.0429" fill="currentColor"/>
</g>
<g transform="translate(40.1465, 64.2342)">
<rect x="0.0000" y="-0.5595" width="0.6600" height="0.1395" ry="0.0429" fill="currentColor"/>
</g>
<g transform="translate(36.7956, 58.3753)">
<polygon stroke-linejoin="round" stroke-linecap="round" stroke-width="0.0889" fill="currentColor" stroke="currentColor" points="6.9100 -0.0306 6.9100 0.0306 0.0444 0.0306 0.0444 -0.0306"/>
</g>
<g transform="translate(50.1787, 70.4151)">
<polygon stroke-linejoin="round" stroke-linecap="round" stroke-width="0.0889" fill="currentColor" stroke="currentColor" points="5.3061 -0.1956 5.3061 0.1956 0.0444 0.1956 0.0444 -0.1956"/>
</g>
<g transform="translate(16.1835, 71.4151)">
<polygon stroke-linejoin="round" stroke-linecap="round" stroke-width="0.0889" fill="currentColor" stroke="currentColor" points="6.7613 -0.1956 6.7613 0.1956 0.0444 0.1956 0.0444 -0.1956"/>
</g>
<g transform="translate(29.9384, 67.0342)">
<rect x="0.0000" y="-0.5595" width="0.6600" height="0.1395" ry="0.0429" fill="currentColor"/>
</g>
<g transform="translate(28.9900, 64.2342)">
<rect x="0.0000" y="-0.5595" width="0.6600" height="0.1395" ry="0.0429" fill="currentColor"/>
</g>
<g transform="translate(26.9101, 58.3753)">
<polygon stroke-linejoin="round" stroke-linecap="round" stroke-width="0.0889" fill="currentColor" stroke="currentColor" points="6.5686 -0.0306 6.5686 0.0306 0.0444 0.0306 0.0444 -0.0306"/>
</g>
<g transform="translate(25.4983, 64.2342)">
<rect x="0.0000" y="-0.5595" width="0.6600" height="0.1395" ry="0.0429" fill="currentColor"/>
</g>
<g transform="translate(17.6059, 67.0342)">
<rect x="0.0000" y="-0.5595" width="0.6600" height="0.1395" ry="0.0429" fill="currentColor"/>
</g>
<g transform="translate(17.4352, 64.2342)">
<rect x="0.0000" y="-0.5595" width="0.6600" height="0.1395" ry="0.0429" fill="currentColor"/>
</g>
<g transform="translate(14.5776, 58.3753)">
<polygon stroke-linejoin="round" stroke-linecap="round" stroke-width="0.0889" fill="currentColor" stroke="currentColor" points="8.1240 -0.0306 8.1240 0.0306 0.0444 0.0306 0.0444 -0.0306"/>
</g>
<g transform="translate(116.2397, 70.2287)">
<polygon stroke-linejoin="round" stroke-linecap="round" stroke-width="0.0889" fill="currentColor" stroke="currentColor" points="5.1490 -0.1956 5.1490 0.1956 0.0444 0.1956 0.0444 -0.1956"/>
</g>
<g transform="translate(103.8692, 71.2287)">
<polygon stroke-linejoin="round" stroke-linecap="round" stroke-width="0.0889" fill="currentColor" stroke="currentColor" points="7.3873 -0.1956 7.3873 0.1956 0.0444 0.1956 0.0444 -0.1956"/>
</g>
<g transform="translate(117.9086, 67.0342)">
<rect x="0.0000" y="-0.5595" width="0.6600" height="0.1395" ry="0.0429" fill="currentColor"/>
</g>
<g transform="translate(117.9086, 64.2342)">
<rect x="0.0000" y="-0.5595" width="0.6600" height="0.1395" ry="0.0429" fill="currentColor"/>
</g>
<g transform="translate(114.6337, 58.3753)">
<polygon stroke-linejoin="round" stroke-linecap="round" stroke-width="0.0889" fill="currentColor" stroke="currentColor" points="6.5117 -0.0306 6.5117 0.0306 0.0444 0.0306 0.0444 -0.0306"/>
</g>
<g transform="translate(92.1058, 70.2287)">
<polygon stroke-linejoin="round" stroke-linecap="round" stroke-width="0.0889" fill="currentColor" stroke="currentColor" points="5.1300 -0.1956 5.1300 0.1956 0.0444 0.1956 0.0444 -0.1956"/>
</g>
<g transform="translate(105.7374, 67.0342)">
<rect x="0.0000" y="-0.5595" width="0.6600" height="0.1395" ry="0.0429" fill="currentColor"/>
</g>
<g transform="translate(107.1885, 64.2342)">
<rect x="0.0000" y="-0.5595" width="0.6600" height="0.1395" ry="0.0429" fill="currentColor"/>
</g>
<g transform="translate(102.2633, 58.3753)">
<polygon stroke-linejoin="round" stroke-linecap="round" stroke-width="0.0889" fill="currentColor" stroke="currentColor" points="8.7500 -0.0306 8.7500 0.0306 0.0444 0.0306 0.0444 -0.0306"/>
</g>
<g transform="translate(99.0495, 67.0342)">
<rect x="0.0000" y="-0.5595" width="0.6600" height="0.1395" ry="0.0429" fill="currentColor"/>
</g>
<g transform="translate(81.7460, 71.2287)">
<polygon stroke-linejoin="round" stroke-linecap="round" stroke-width="0.0889" fill="currentColor" stroke="currentColor" points="5.6042 -0.1956 5.6042 0.1956 0.0444 0.1956 0.0444 -0.1956"/>
</g>
<g transform="translate(92.7315, 64.2342)">
<rect x="0.0000" y="-0.5595" width="0.6600" height="0.1395" ry="0.0429" fill="currentColor"/>
</g>
<g transform="translate(90.4998, 58.3753)">
<polygon stroke-linejoin="round" stroke-linecap="round" stroke-width="0.0889" fill="currentColor" stroke="currentColor" points="6.4927 -0.0306 6.4927 0.0306 0.0444 0.0306 0.0444 -0.0306"/>
</g>
<g transform="translate(89.1544, 64.2342)">
<rect x="0.0000" y="-0.5595" width="0.6600" height="0.1395" ry="0.0429" fill="currentColor"/>
</g>
<g transform="translate(83.4150, 67.0342)">
<rect x="0.0000" y="-0.5595" width="0.6600" height="0.1395" ry="0.0429" fill="currentColor"/>
</g>
<g transform="translate(83.1494, 64.2342)">
<rect x="0.0000" y="-0.5595" width="0.6600" height="0.1395" ry="0.0429" fill="currentColor"/>
</g>
<g transform="translate(80.1400, 58.3753)">
<polygon stroke-linejoin="round" stroke-linecap="round" stroke-width="0.0889" fill="currentColor" stroke="currentColor" points="6.9670 -0.0306 6.9670 0.0306 0.0444 0.0306 0.0444 -0.0306"/>
</g>
<g transform="translate(68.0103, 67.0342)">
<rect x="0.0000" y="-0.5595" width="0.6600" height="0.1395" ry="0.0429" fill="currentColor"/>
</g>
<g transform="translate(68.0862, 64.2342)">
<rect x="0.0000" y="-0.5595" width="0.6600" height="0.1395" ry="0.0429" fill="currentColor"/>
</g>
<g transform="translate(116.3094, 72.2287)">
<rect x="-0.0697" y="-2.0000" width="0.1395" height="2.7582" ry="0.0444" fill="currentColor"/>
</g>
<g color="rgba(0.0000%, 0.0000%, 100.0000%, 100.0000%)">
</g>
<g transform="translate(114.7348, 77.2287)">
<path transform="scale(0.0050, -0.0050)" d="M219 135c54 0 107 -27 107 -87c0 -18 -5 -37 -13 -54c-32 -66 -114 -129 -206 -129c-54 0 -107 27 -107 87c0 18 5 37 13 54c32 66 114 129 206 129z" fill="currentColor"/>
</g>
<g transform="translate(114.7348, 73.2287)">
<path transform="scale(0.0050, -0.0050)" d="M219 135c54 0 107 -27 107 -87c0 -18 -5 -37 -13 -54c-32 -66 -114 -129 -206 -129c-54 0 -107 27 -107 87c0 18 5 37 13 54c32 66 114 129 206 129z" fill="currentColor"/>
</g>
<g transform="translate(113.6346, 67.2342)">
<text font-family="sans" font-size="2.4691" text-anchor="start" fill="currentColor">
<tspan>cip</tspan>
</text>
</g>
<g transform="translate(113.6346, 64.4342)">
<text font-family="sans" font-size="2.4691" text-anchor="start" fill="currentColor">
<tspan>cip</tspan>
</text>
</g>
<g transform="translate(114.7348, 61.1539)">
<text font-family="sans" font-size="2.2000" text-anchor="start" fill="currentColor">
<tspan>5</tspan>
</text>
</g>
<g transform="translate(111.2312, 72.2287)">
<rect x="-0.0697" y="-1.0000" width="0.1395" height="2.7582" ry="0.0444" fill="currentColor"/>
</g>
<g color="rgba(0.0000%, 0.0000%, 100.0000%, 100.0000%)">
</g>
<g transform="translate(109.6566, 74.2287)">
<path transform="scale(0.0050, -0.0050)" d="M219 135c54 0 107 -27 107 -87c0 -18 -5 -37 -13 -54c-32 -66 -114 -129 -206 -129c-54 0 -107 27 -107 87c0 18 5 37 13 54c32 66 114 129 206 129z" fill="currentColor"/>
</g>
<g transform="translate(108.5185, 64.4342)">
<text font-family="sans" font-size="2.4691" text-anchor="start" fill="currentColor">
<tspan>luk</tspan>
</text>
</g>
<g transform="translate(109.6566, 61.1539)">
<text font-family="sans" font-size="2.2000" text-anchor="start" fill="currentColor">
<tspan>3</tspan>
</text>
</g>
<g transform="translate(121.3633, 72.2287)">
<rect x="-0.0697" y="-2.0000" width="0.1395" height="2.7582" ry="0.0444" fill="currentColor"/>
</g>
<g color="rgba(0.0000%, 0.0000%, 100.0000%, 100.0000%)">
</g>
<g transform="translate(119.7887, 73.2287)">
<path transform="scale(0.0050, -0.0050)" d="M219 135c54 0 107 -27 107 -87c0 -18 -5 -37 -13 -54c-32 -66 -114 -129 -206 -129c-54 0 -107 27 -107 87c0 18 5 37 13 54c32 66 114 129 206 129z" fill="currentColor"/>
</g>
<g transform="translate(119.2386, 67.2342)">
<text font-family="sans" font-size="2.4691" text-anchor="start" fill="currentColor">
<tspan>ta</tspan>
</text>
</g>
<g transform="translate(119.2386, 64.4342)">
<text font-family="sans" font-size="2.4691" text-anchor="start" fill="currentColor">
<tspan>ta</tspan>
</text>
</g>
<g transform="translate(119.7887, 61.1539)">
<text font-family="sans" font-size="2.2000" text-anchor="start" fill="currentColor">
<tspan>5</tspan>
</text>
</g>
<g transform="translate(114.8046, 81.2287)">
<rect x="-0.0697" y="-3.7582" width="0.1395" height="3.7582" ry="0.0444" fill="currentColor"/>
</g>
<g transform="translate(31.2684, 67.2342)">
<text font-family="sans" font-size="2.4691" text-anchor="start" fill="currentColor">
<tspan>kit</tspan>
</text>
</g>
<g transform="translate(30.5856, 64.4342)">
<text font-family="sans" font-size="2.4691" text-anchor="start" fill="currentColor">
<tspan>kan</tspan>
</text>
</g>
<g transform="translate(32.1220, 61.1539)">
<text font-family="sans" font-size="2.2000" text-anchor="start" fill="currentColor">
<tspan>4</tspan>
</text>
</g>
<g transform="translate(27.0809, 81.2287)">
<rect x="-0.0697" y="-3.2582" width="0.1395" height="3.2582" ry="0.0444" fill="currentColor"/>
</g>
<g transform="translate(28.5858, 72.2287)">
<rect x="-0.0697" y="-1.8137" width="0.1395" height="3.0719" ry="0.0444" fill="currentColor"/>
</g>
<g transform="translate(32.1220, 73.7287)">
<path transform="scale(0.0050, -0.0050)" d="M219 135c54 0 107 -27 107 -87c0 -18 -5 -37 -13 -54c-32 -66 -114 -129 -206 -129c-54 0 -107 27 -107 87c0 18 5 37 13 54c32 66 114 129 206 129z" fill="currentColor"/>
</g>
<g color="rgba(0.0000%, 0.0000%, 100.0000%, 100.0000%)">
</g>
<g transform="translate(27.0112, 77.7287)">
<path transform="scale(0.0050, -0.0050)" d="M219 135c54 0 107 -27 107 -87c0 -18 -5 -37 -13 -54c-32 -66 -114 -129 -206 -129c-54 0 -107 27 -107 87c0 18 5 37 13 54c32 66 114 129 206 129z" fill="currentColor"/>
</g>
<g transform="translate(27.0112, 73.7287)">
<path transform="scale(0.0050, -0.0050)" d="M219 135c54 0 107 -27 107 -87c0 -18 -5 -37 -13 -54c-32 -66 -114 -129 -206 -129c-54 0 -107 27 -107 87c0 18 5 37 13 54c32 66 114 129 206 129z" fill="currentColor"/>
</g>
<g transform="translate(26.1576, 67.2342)">
<text font-family="sans" font-size="2.4691" text-anchor="start" fill="currentColor">
<tspan>bu</tspan>
</text>
</g>
<g transform="translate(27.3716, 64.4342)">
<text font-family="sans" font-size="2.4691" text-anchor="start" fill="currentColor">
<tspan>i</tspan>
</text>
</g>
<g transform="translate(27.0112, 61.1539)">
<text font-family="sans" font-size="2.2000" text-anchor="start" fill="currentColor">
<tspan>4</tspan>
</text>
</g>
<g transform="translate(22.9195, 72.2287)">
<rect x="-0.0697" y="-0.8137" width="0.1395" height="3.0719" ry="0.0444" fill="currentColor"/>
</g>
<g transform="translate(36.8967, 78.7287)">
<path transform="scale(0.0050, -0.0050)" d="M219 135c54 0 107 -27 107 -87c0 -18 -5 -37 -13 -54c-32 -66 -114 -129 -206 -129c-54 0 -107 27 -107 87c0 18 5 37 13 54c32 66 114 129 206 129z" fill="currentColor"/>
</g>
<g transform="translate(36.9665, 81.2287)">
<rect x="-0.0697" y="-2.2582" width="0.1395" height="3.2582" ry="0.0444" fill="currentColor"/>
</g>
<g transform="translate(38.4714, 72.2287)">
<rect x="-0.0697" y="-0.8137" width="0.1395" height="3.0719" ry="0.0444" fill="currentColor"/>
</g>
<g color="rgba(0.0000%, 0.0000%, 100.0000%, 100.0000%)">
</g>
<g transform="translate(36.8967, 74.7287)">
<path transform="scale(0.0050, -0.0050)" d="M219 135c54 0 107 -27 107 -87c0 -18 -5 -37 -13 -54c-32 -66 -114 -129 -206 -129c-54 0 -107 27 -107 87c0 18 5 37 13 54c32 66 114 129 206 129z" fill="currentColor"/>
</g>
<g transform="translate(35.5500, 67.2342)">
<text font-family="sans" font-size="2.4691" text-anchor="start" fill="currentColor">
<tspan>ber</tspan>
</text>
</g>
<g transform="translate(36.0621, 64.4342)">
<text font-family="sans" font-size="2.4691" text-anchor="start" fill="currentColor">
<tspan>be</tspan>
</text>
</g>
<g transform="translate(36.8967, 61.1539)">
<text font-family="sans" font-size="2.2000" text-anchor="start" fill="currentColor">
<tspan>2</tspan>
</text>
</g>
<g transform="translate(33.6966, 72.2287)">
<rect x="-0.0697" y="-1.8137" width="0.1395" height="3.0719" ry="0.0444" fill="currentColor"/>
</g>
<g color="rgba(0.0000%, 0.0000%, 100.0000%, 100.0000%)">
</g>
<g transform="translate(10.2843, 80.2287)">
<path transform="scale(0.0040, -0.0040)" d="M558 -125c0 28 22 51 50 51s51 -23 51 -51s-23 -51 -51 -51s-50 23 -50 51zM558 125c0 28 22 51 50 51s51 -23 51 -51s-23 -51 -51 -51s-50 23 -50 51zM231 264c172 0 294 -88 294 -251c0 -263 -262 -416 -515 -523c-3 -3 -7 -4 -10 -4c-7 0 -14 7 -14 14c0 3 1 7 4 10
c201 118 410 265 410 492c0 119 -61 234 -169 234c-72 0 -124 -53 -148 -123c10 4 19 6 29 6c55 0 100 -45 100 -100c0 -58 -44 -106 -100 -106c-60 0 -112 47 -112 106c0 133 101 245 231 245z" fill="currentColor"/>
</g>
<g transform="translate(10.2843, 73.2287)">
<path transform="scale(0.0040, -0.0040)" d="M248 554c-30 96 -54 193 -54 311c0 141 41 248 149 326c3 2 7 3 11 3s8 -1 11 -4c71 -83 134 -244 134 -357c0 -143 -85 -255 -178 -364c21 -68 40 -137 57 -206c4 0 8 1 12 1c156 0 256 -129 256 -262c0 -77 -34 -154 -108 -210c-22 -17 -46 -29 -72 -37
c3 -34 5 -68 5 -102c0 -20 -1 -40 -2 -60c-7 -121 -90 -228 -209 -228c-108 0 -196 87 -196 196c0 58 53 104 112 104c54 0 95 -48 95 -104c0 -52 -43 -95 -95 -95c-10 0 -20 2 -29 6c26 -38 68 -63 116 -63h3c93 2 153 92 159 190c1 19 2 37 2 56c0 30 -2 60 -4 90
c-29 -5 -58 -8 -88 -8c-188 0 -333 173 -333 375c0 177 130 307 246 442zM403 150c24 -115 46 -230 59 -352c76 28 110 92 110 159c0 89 -61 181 -169 193zM75 26c0 -134 129 -245 263 -245c28 0 55 2 81 6c-14 126 -36 244 -61 363c-79 -8 -124 -61 -124 -119
c0 -43 25 -89 80 -121c5 -5 7 -11 7 -16c0 -12 -10 -23 -22 -23c-3 0 -6 1 -9 2c-81 43 -118 116 -118 186c0 89 58 175 161 198c-14 58 -29 116 -46 173c-106 -122 -212 -244 -212 -404zM406 1042c-102 -49 -161 -144 -161 -261c0 -70 19 -129 37 -187
c78 96 145 200 145 325c0 39 -7 80 -21 123z" fill="currentColor"/>
</g>
<g transform="translate(122.0869, 67.0342)">
<rect x="0.0000" y="-0.5595" width="0.6600" height="0.1395" ry="0.0429" fill="currentColor"/>
</g>
<g transform="translate(122.0869, 64.2342)">
<rect x="0.0000" y="-0.5595" width="0.6600" height="0.1395" ry="0.0429" fill="currentColor"/>
</g>
<g transform="translate(9.3804, 70.6163)">
<rect x="0.0000" y="-12.6660" width="0.2039" height="25.3321" ry="0.0537" fill="currentColor"/>
</g>
<g transform="translate(9.0804, 76.7287)">
<path transform="scale(0.0045, -0.0045)" d="M-177 -1011c0 237 96 465 96 687c0 120 -27 234 -117 318c-3 3 -3 3 -3 6s0 3 3 6c90 84 117 198 117 318c0 222 -96 450 -96 687c0 171 42 333 165 450c3 3 9 3 12 3c9 0 15 -6 15 -15c0 -3 0 -9 -3 -12c-90 -87 -120 -198 -120 -318c0 -219 90 -444 90 -675
c0 -168 -42 -327 -159 -444c117 -117 159 -276 159 -444c0 -231 -90 -456 -90 -675c0 -120 30 -231 120 -318c3 -3 3 -9 3 -12c0 -9 -6 -15 -15 -15c-3 0 -9 0 -12 3c-123 117 -165 279 -165 450z" fill="currentColor"/>
</g>
<g transform="translate(16.2533, 72.2287)">
<rect x="-0.0697" y="-0.8137" width="0.1395" height="3.0719" ry="0.0444" fill="currentColor"/>
</g>
<g color="rgba(0.0000%, 0.0000%, 100.0000%, 100.0000%)">
</g>
<g transform="translate(21.3449, 74.7287)">
<path transform="scale(0.0050, -0.0050)" d="M219 135c54 0 107 -27 107 -87c0 -18 -5 -37 -13 -54c-32 -66 -114 -129 -206 -129c-54 0 -107 27 -107 87c0 18 5 37 13 54c32 66 114 129 206 129z" fill="currentColor"/>
</g>
<g transform="translate(18.9359, 67.2342)">
<text font-family="sans" font-size="2.4691" text-anchor="start" fill="currentColor">
<tspan>nung</tspan>
</text>
</g>
<g transform="translate(19.8085, 64.4342)">
<text font-family="sans" font-size="2.4691" text-anchor="start" fill="currentColor">
<tspan>kan</tspan>
</text>
</g>
<g transform="translate(21.3449, 61.1539)">
<text font-family="sans" font-size="2.2000" text-anchor="start" fill="currentColor">
<tspan>2</tspan>
</text>
</g>
<g transform="translate(14.7484, 81.2287)">
<rect x="-0.0697" y="-2.2582" width="0.1395" height="3.2582" ry="0.0444" fill="currentColor"/>
</g>
<g color="rgba(0.0000%, 0.0000%, 100.0000%, 100.0000%)">
</g>
<g transform="translate(14.6787, 78.7287)">
<path transform="scale(0.0050, -0.0050)" d="M219 135c54 0 107 -27 107 -87c0 -18 -5 -37 -13 -54c-32 -66 -114 -129 -206 -129c-54 0 -107 27 -107 87c0 18 5 37 13 54c32 66 114 129 206 129z" fill="currentColor"/>
</g>
<g transform="translate(14.6787, 74.7287)">
<path transform="scale(0.0050, -0.0050)" d="M219 135c54 0 107 -27 107 -87c0 -18 -5 -37 -13 -54c-32 -66 -114 -129 -206 -129c-54 0 -107 27 -107 87c0 18 5 37 13 54c32 66 114 129 206 129z" fill="currentColor"/>
</g>
<g transform="translate(13.8251, 67.2342)">
<text font-family="sans" font-size="2.4691" text-anchor="start" fill="currentColor">
<tspan>gu</tspan>
</text>
</g>
<g transform="translate(15.0391, 64.4342)">
<text font-family="sans" font-size="2.4691" text-anchor="start" fill="currentColor">
<tspan>i</tspan>
</text>
</g>
<g transform="translate(14.6787, 61.1539)">
<text font-family="sans" font-size="2.2000" text-anchor="start" fill="currentColor">
<tspan>2</tspan>
</text>
</g>
<g transform="translate(59.2225, 81.2287)">
<rect x="-0.0697" y="-2.7582" width="0.1395" height="3.2582" ry="0.0444" fill="currentColor"/>
</g>
<g transform="translate(60.7274, 72.2287)">
<rect x="-0.0697" y="-1.5000" width="0.1395" height="3.2582" ry="0.0444" fill="currentColor"/>
</g>
<g color="rgba(0.0000%, 0.0000%, 100.0000%, 100.0000%)">
</g>
<g transform="translate(59.1528, 78.2287)">
<path transform="scale(0.0050, -0.0050)" d="M219 135c54 0 107 -27 107 -87c0 -18 -5 -37 -13 -54c-32 -66 -114 -129 -206 -129c-54 0 -107 27 -107 87c0 18 5 37 13 54c32 66 114 129 206 129z" fill="currentColor"/>
</g>
<g transform="translate(59.1528, 74.2287)">
<path transform="scale(0.0050, -0.0050)" d="M219 135c54 0 107 -27 107 -87c0 -18 -5 -37 -13 -54c-32 -66 -114 -129 -206 -129c-54 0 -107 27 -107 87c0 18 5 37 13 54c32 66 114 129 206 129z" fill="currentColor"/>
</g>
<g transform="translate(57.1231, 67.2342)">
<text font-family="sans" font-size="2.4691" text-anchor="start" fill="currentColor">
<tspan>men</tspan>
</text>
</g>
<g transform="translate(58.7544, 64.4342)">
<text font-family="sans" font-size="2.4691" text-anchor="start" fill="currentColor">
<tspan>la</tspan>
</text>
</g>
<g transform="translate(59.1528, 61.1539)">
<text font-family="sans" font-size="2.2000" text-anchor="start" fill="currentColor">
<tspan>3</tspan>
</text>
</g>
<g transform="translate(71.5185, 72.2287)">
<rect x="-0.0697" y="-2.5000" width="0.1395" height="3.1673" ry="0.0444" fill="currentColor"/>
</g>
<g color="rgba(0.0000%, 0.0000%, 100.0000%, 100.0000%)">
</g>
<g transform="translate(69.8564, 77.2287)">
<path transform="scale(0.0050, -0.0050)" d="M305 38c8 9 10 18 10 27c0 23 -20 42 -43 42c-4 0 -8 0 -12 -1c-31 -9 -78 -40 -115 -64s-85 -55 -106 -80c-8 -9 -11 -18 -11 -27c0 -23 21 -42 44 -42c4 0 7 0 11 1c31 9 79 40 116 64s85 55 106 80zM263 135c45 0 81 -20 81 -69c0 -19 -5 -38 -11 -56
c-12 -37 -33 -73 -65 -95c-53 -36 -114 -50 -188 -50c-45 0 -80 20 -80 69c0 19 5 38 11 56c12 37 32 73 64 95c53 36 114 50 188 50z" fill="currentColor"/>
</g>
<g transform="translate(69.8564, 73.2287)">
<path transform="scale(0.0050, -0.0050)" d="M305 38c8 9 10 18 10 27c0 23 -20 42 -43 42c-4 0 -8 0 -12 -1c-31 -9 -78 -40 -115 -64s-85 -55 -106 -80c-8 -9 -11 -18 -11 -27c0 -23 21 -42 44 -42c4 0 7 0 11 1c31 9 79 40 116 64s85 55 106 80zM263 135c45 0 81 -20 81 -69c0 -19 -5 -38 -11 -56
c-12 -37 -33 -73 -65 -95c-53 -36 -114 -50 -188 -50c-45 0 -80 20 -80 69c0 19 5 38 11 56c12 37 32 73 64 95c53 36 114 50 188 50z" fill="currentColor"/>
</g>
<g transform="translate(69.8564, 67.2342)">
<text font-family="sans" font-size="2.4691" text-anchor="start" fill="currentColor">
<tspan>lang.</tspan>
</text>
</g>
<g transform="translate(69.8564, 64.4342)">
<text font-family="sans" font-size="2.4691" text-anchor="start" fill="currentColor">
<tspan>an.</tspan>
</text>
</g>
<g transform="translate(69.8564, 61.1539)">
<text font-family="sans" font-size="2.2000" text-anchor="start" fill="currentColor">
<tspan>5</tspan>
</text>
</g>
<g transform="translate(65.0731, 81.2287)">
<rect x="-0.0697" y="-3.2582" width="0.1395" height="3.2582" ry="0.0444" fill="currentColor"/>
</g>
<g transform="translate(66.5780, 72.2287)">
<rect x="-0.0697" y="-2.0000" width="0.1395" height="3.2582" ry="0.0444" fill="currentColor"/>
</g>
<g color="rgba(0.0000%, 0.0000%, 100.0000%, 100.0000%)">
</g>
<g transform="translate(65.0034, 77.7287)">
<path transform="scale(0.0050, -0.0050)" d="M219 135c54 0 107 -27 107 -87c0 -18 -5 -37 -13 -54c-32 -66 -114 -129 -206 -129c-54 0 -107 27 -107 87c0 18 5 37 13 54c32 66 114 129 206 129z" fill="currentColor"/>
</g>
<g transform="translate(65.0034, 73.7287)">
<path transform="scale(0.0050, -0.0050)" d="M219 135c54 0 107 -27 107 -87c0 -18 -5 -37 -13 -54c-32 -66 -114 -129 -206 -129c-54 0 -107 27 -107 87c0 18 5 37 13 54c32 66 114 129 206 129z" fill="currentColor"/>
</g>
<g transform="translate(64.5861, 67.2342)">
<text font-family="sans" font-size="2.4691" text-anchor="start" fill="currentColor">
<tspan>ju</tspan>
</text>
</g>
<g transform="translate(64.4343, 64.4342)">
<text font-family="sans" font-size="2.4691" text-anchor="start" fill="currentColor">
<tspan>ut</tspan>
</text>
</g>
<g transform="translate(65.0034, 61.1539)">
<text font-family="sans" font-size="2.2000" text-anchor="start" fill="currentColor">
<tspan>4</tspan>
</text>
</g>
<g transform="translate(50.2484, 72.2287)">
<rect x="-0.0697" y="-1.8137" width="0.1395" height="3.0719" ry="0.0444" fill="currentColor"/>
</g>
<g color="rgba(0.0000%, 0.0000%, 100.0000%, 100.0000%)">
</g>
<g transform="translate(48.6738, 77.7287)">
<path transform="scale(0.0050, -0.0050)" d="M219 135c54 0 107 -27 107 -87c0 -18 -5 -37 -13 -54c-32 -66 -114 -129 -206 -129c-54 0 -107 27 -107 87c0 18 5 37 13 54c32 66 114 129 206 129z" fill="currentColor"/>
</g>
<g transform="translate(48.6738, 73.7287)">
<path transform="scale(0.0050, -0.0050)" d="M219 135c54 0 107 -27 107 -87c0 -18 -5 -37 -13 -54c-32 -66 -114 -129 -206 -129c-54 0 -107 27 -107 87c0 18 5 37 13 54c32 66 114 129 206 129z" fill="currentColor"/>
</g>
<g transform="translate(48.1048, 67.2342)">
<text font-family="sans" font-size="2.4691" text-anchor="start" fill="currentColor">
<tspan>ut</tspan>
</text>
</g>
<g transform="translate(46.2838, 64.4342)">
<text font-family="sans" font-size="2.4691" text-anchor="start" fill="currentColor">
<tspan>nang</tspan>
</text>
</g>
<g transform="translate(48.6738, 61.1539)">
<text font-family="sans" font-size="2.2000" text-anchor="start" fill="currentColor">
<tspan>4</tspan>
</text>
</g>
<g transform="translate(43.9236, 72.2287)">
<rect x="-0.0697" y="-0.8137" width="0.1395" height="3.0719" ry="0.0444" fill="currentColor"/>
</g>
<g color="rgba(0.0000%, 0.0000%, 100.0000%, 100.0000%)">
</g>
<g transform="translate(42.3490, 74.7287)">
<path transform="scale(0.0050, -0.0050)" d="M219 135c54 0 107 -27 107 -87c0 -18 -5 -37 -13 -54c-32 -66 -114 -129 -206 -129c-54 0 -107 27 -107 87c0 18 5 37 13 54c32 66 114 129 206 129z" fill="currentColor"/>
</g>
<g transform="translate(41.6472, 67.2342)">
<text font-family="sans" font-size="2.4691" text-anchor="start" fill="currentColor">
<tspan>sa</tspan>
</text>
</g>
<g transform="translate(41.8179, 64.4342)">
<text font-family="sans" font-size="2.4691" text-anchor="start" fill="currentColor">
<tspan>re</tspan>
</text>
</g>
<g transform="translate(42.3490, 61.1539)">
<text font-family="sans" font-size="2.2000" text-anchor="start" fill="currentColor">
<tspan>2</tspan>
</text>
</g>
<g transform="translate(48.7436, 81.2287)">
<rect x="-0.0697" y="-3.2582" width="0.1395" height="3.2582" ry="0.0444" fill="currentColor"/>
</g>
<g transform="translate(55.4594, 72.2287)">
<rect x="-0.0697" y="-1.8137" width="0.1395" height="3.0719" ry="0.0444" fill="currentColor"/>
</g>
<g color="rgba(0.0000%, 0.0000%, 100.0000%, 100.0000%)">
</g>
<g transform="translate(53.8848, 73.7287)">
<path transform="scale(0.0050, -0.0050)" d="M219 135c54 0 107 -27 107 -87c0 -18 -5 -37 -13 -54c-32 -66 -114 -129 -206 -129c-54 0 -107 27 -107 87c0 18 5 37 13 54c32 66 114 129 206 129z" fill="currentColor"/>
</g>
<g transform="translate(53.0502, 67.2342)">
<text font-family="sans" font-size="2.4691" text-anchor="start" fill="currentColor">
<tspan>an</tspan>
</text>
</g>
<g transform="translate(53.4675, 64.4342)">
<text font-family="sans" font-size="2.4691" text-anchor="start" fill="currentColor">
<tspan>di</tspan>
</text>
</g>
<g transform="translate(53.8848, 61.1539)">
<text font-family="sans" font-size="2.2000" text-anchor="start" fill="currentColor">
<tspan>4</tspan>
</text>
</g>
<g transform="translate(122.6515, 91.1751)">
<rect x="0.0000" y="17.2220" width="0.6438" height="4.9463" ry="0.0000" fill="currentColor"/>
</g>
<g transform="translate(122.1257, 91.1751)">
<rect x="0.0000" y="17.2220" width="0.2039" height="4.9463" ry="0.0000" fill="currentColor"/>
</g>
<g transform="translate(48.4606, 91.1751)">
<rect x="0.0000" y="17.2220" width="0.2039" height="4.9463" ry="0.0000" fill="currentColor"/>
</g>
<g transform="translate(90.0233, 91.1751)">
<rect x="0.0000" y="17.2220" width="0.2039" height="4.9463" ry="0.0000" fill="currentColor"/>
</g>
<g transform="translate(122.6515, 106.3434)">
<rect x="0.0000" y="-2.0000" width="0.6438" height="4.0537" ry="0.0000" fill="currentColor"/>
</g>
<g transform="translate(122.1257, 106.3434)">
<rect x="0.0000" y="-2.0000" width="0.2039" height="4.0537" ry="0.0000" fill="currentColor"/>
</g>
<g transform="translate(122.6515, 93.2287)">
<rect x="0.0000" y="-2.0000" width="0.6438" height="4.0000" ry="0.0000" fill="currentColor"/>
</g>
<g transform="translate(122.1257, 93.2287)">
<rect x="0.0000" y="-2.0000" width="0.2039" height="4.0000" ry="0.0000" fill="currentColor"/>
</g>
<g transform="translate(122.6515, 115.3434)">
<rect x="0.0000" y="-2.0537" width="0.6438" height="4.0537" ry="0.0000" fill="currentColor"/>
</g>
<g transform="translate(122.1257, 115.3434)">
<rect x="0.0000" y="-2.0537" width="0.2039" height="4.0537" ry="0.0000" fill="currentColor"/>
</g>
<g transform="translate(48.4606, 115.3434)">
<rect x="0.0000" y="-2.0537" width="0.2039" height="4.0537" ry="0.0000" fill="currentColor"/>
</g>
<g transform="translate(48.4606, 106.3434)">
<rect x="0.0000" y="-2.0000" width="0.2039" height="4.0537" ry="0.0000" fill="currentColor"/>
</g>
<g transform="translate(48.4606, 93.2287)">
<rect x="0.0000" y="-2.0000" width="0.2039" height="4.0000" ry="0.0000" fill="currentColor"/>
</g>
<g transform="translate(90.0233, 93.2287)">
<rect x="0.0000" y="-2.0000" width="0.2039" height="4.0000" ry="0.0000" fill="currentColor"/>
</g>
<g transform="translate(90.0233, 106.3434)">
<rect x="0.0000" y="-2.0000" width="0.2039" height="4.0537" ry="0.0000" fill="currentColor"/>
</g>
<g transform="translate(90.0233, 115.3434)">
<rect x="0.0000" y="-2.0537" width="0.2039" height="4.0537" ry="0.0000" fill="currentColor"/>
</g>
<g transform="translate(9.4843, 112.3434)">
<rect x="63.9933" y="-0.1037" width="2.4665" height="0.2073" ry="0.1037" fill="currentColor"/>
</g>
<g transform="translate(9.4843, 112.3434)">
<rect x="57.1699" y="-0.1037" width="2.4665" height="0.2073" ry="0.1037" fill="currentColor"/>
</g>
<g transform="translate(9.4843, 111.3434)">
<rect x="50.5416" y="-0.1037" width="2.4665" height="0.2073" ry="0.1037" fill="currentColor"/>
</g>
<g transform="translate(9.4843, 112.3434)">
<rect x="50.5416" y="-0.1037" width="2.4665" height="0.2073" ry="0.1037" fill="currentColor"/>
</g>
<g transform="translate(9.4843, 111.3434)">
<rect x="45.7318" y="-0.1037" width="2.4665" height="0.2073" ry="0.1037" fill="currentColor"/>
</g>
<g transform="translate(9.4843, 112.3434)">
<rect x="45.7318" y="-0.1037" width="2.4665" height="0.2073" ry="0.1037" fill="currentColor"/>
</g>
<g transform="translate(9.4843, 111.3434)">
<rect x="40.9221" y="-0.1037" width="2.4665" height="0.2073" ry="0.1037" fill="currentColor"/>
</g>
<g transform="translate(9.4843, 112.3434)">
<rect x="40.9221" y="-0.1037" width="2.4665" height="0.2073" ry="0.1037" fill="currentColor"/>
</g>
<g transform="translate(9.4843, 111.3434)">
<rect x="20.8723" y="-0.1037" width="2.5979" height="0.2073" ry="0.1037" fill="currentColor"/>
</g>
<g transform="translate(9.4843, 112.3434)">
<rect x="20.8723" y="-0.1037" width="2.5979" height="0.2073" ry="0.1037" fill="currentColor"/>
</g>
<g transform="translate(9.4843, 111.3434)">
<rect x="12.8388" y="-0.1037" width="2.4665" height="0.2073" ry="0.1037" fill="currentColor"/>
</g>
<g transform="translate(9.4843, 112.3434)">
<rect x="12.8388" y="-0.1037" width="2.4665" height="0.2073" ry="0.1037" fill="currentColor"/>
</g>
<g transform="translate(9.4843, 112.3434)">
<rect x="4.7833" y="-0.1037" width="2.4665" height="0.2073" ry="0.1037" fill="currentColor"/>
</g>
<g transform="translate(9.4843, 117.3434)">
<line stroke-linejoin="round" stroke-linecap="round" stroke-width="0.1073" stroke="currentColor" x1="0.0537" y1="0" x2="113.7574" y2="0"/>
</g>
<g transform="translate(9.4843, 116.3434)">
<line stroke-linejoin="round" stroke-linecap="round" stroke-width="0.1073" stroke="currentColor" x1="0.0537" y1="0" x2="113.7574" y2="0"/>
</g>
<g transform="translate(9.4843, 115.3434)">
<line stroke-linejoin="round" stroke-linecap="round" stroke-width="0.1073" stroke="currentColor" x1="0.0537" y1="0" x2="113.7574" y2="0"/>
</g>
<g transform="translate(9.4843, 114.3434)">
<line stroke-linejoin="round" stroke-linecap="round" stroke-width="0.1073" stroke="currentColor" x1="0.0537" y1="0" x2="113.7574" y2="0"/>
</g>
<g transform="translate(9.4843, 113.3434)">
<line stroke-linejoin="round" stroke-linecap="round" stroke-width="0.1073" stroke="currentColor" x1="0.0537" y1="0" x2="113.7574" y2="0"/>
</g>
<g transform="translate(9.4843, 108.3434)">
<line stroke-linejoin="round" stroke-linecap="round" stroke-width="0.1073" stroke="currentColor" x1="0.0537" y1="0" x2="113.7574" y2="0"/>
</g>
<g transform="translate(9.4843, 107.3434)">
<line stroke-linejoin="round" stroke-linecap="round" stroke-width="0.1073" stroke="currentColor" x1="0.0537" y1="0" x2="113.7574" y2="0"/>
</g>
<g transform="translate(9.4843, 106.3434)">
<line stroke-linejoin="round" stroke-linecap="round" stroke-width="0.1073" stroke="currentColor" x1="0.0537" y1="0" x2="113.7574" y2="0"/>
</g>
<g transform="translate(9.4843, 105.3434)">
<line stroke-linejoin="round" stroke-linecap="round" stroke-width="0.1073" stroke="currentColor" x1="0.0537" y1="0" x2="113.7574" y2="0"/>
</g>
<g transform="translate(9.4843, 104.3434)">
<line stroke-linejoin="round" stroke-linecap="round" stroke-width="0.1073" stroke="currentColor" x1="0.0537" y1="0" x2="113.7574" y2="0"/>
</g>
<g transform="translate(9.4843, 109.3434)">
<rect x="82.5286" y="-0.1037" width="2.5979" height="0.2073" ry="0.1037" fill="currentColor"/>
</g>
<g transform="translate(81.9441, 112.8434)">
<path transform="scale(0.0050, -0.0050)" d="M219 135c54 0 107 -27 107 -87c0 -18 -5 -37 -13 -54c-32 -66 -114 -129 -206 -129c-54 0 -107 27 -107 87c0 18 5 37 13 54c32 66 114 129 206 129z" fill="currentColor"/>
</g>
<g transform="translate(83.5187, 106.3434)">
<rect x="-0.0697" y="-1.0000" width="0.1395" height="3.2582" ry="0.0444" fill="currentColor"/>
</g>
<g color="rgba(0.0000%, 0.0000%, 100.0000%, 100.0000%)">
</g>
<g transform="translate(81.9441, 108.8434)">
<path transform="scale(0.0050, -0.0050)" d="M219 135c54 0 107 -27 107 -87c0 -18 -5 -37 -13 -54c-32 -66 -114 -129 -206 -129c-54 0 -107 27 -107 87c0 18 5 37 13 54c32 66 114 129 206 129z" fill="currentColor"/>
</g>
<g transform="translate(81.5268, 100.4590)">
<text font-family="sans" font-size="2.4691" text-anchor="start" fill="currentColor">
<tspan>bi</tspan>
</text>
</g>
<g transform="translate(81.5268, 97.6590)">
<text font-family="sans" font-size="2.4691" text-anchor="start" fill="currentColor">
<tspan>bi</tspan>
</text>
</g>
<g transform="translate(81.9441, 94.3787)">
<text font-family="sans" font-size="2.2000" text-anchor="start" fill="currentColor">
<tspan>2</tspan>
</text>
</g>
<g transform="translate(94.6237, 108.8434)">
<path transform="scale(0.0040, -0.0040)" d="M0 0c0 31 25 56 56 56s55 -25 55 -56s-24 -56 -55 -56s-56 25 -56 56z" fill="currentColor"/>
</g>
<g transform="translate(94.6237, 113.8434)">
<path transform="scale(0.0040, -0.0040)" d="M0 0c0 31 25 56 56 56s55 -25 55 -56s-24 -56 -55 -56s-56 25 -56 56z" fill="currentColor"/>
</g>
<g transform="translate(94.1079, 106.3434)">
<rect x="-0.0697" y="-0.5000" width="0.1395" height="3.1673" ry="0.0444" fill="currentColor"/>
</g>
<g transform="translate(92.4458, 97.6590)">
<text font-family="sans" font-size="2.4691" text-anchor="start" fill="currentColor">
<tspan>ra.</tspan>
</text>
</g>
<g color="rgba(0.0000%, 0.0000%, 100.0000%, 100.0000%)">
</g>
<g transform="translate(92.4458, 113.8434)">
<path transform="scale(0.0050, -0.0050)" d="M305 38c8 9 10 18 10 27c0 23 -20 42 -43 42c-4 0 -8 0 -12 -1c-31 -9 -78 -40 -115 -64s-85 -55 -106 -80c-8 -9 -11 -18 -11 -27c0 -23 21 -42 44 -42c4 0 7 0 11 1c31 9 79 40 116 64s85 55 106 80zM263 135c45 0 81 -20 81 -69c0 -19 -5 -38 -11 -56
c-12 -37 -33 -73 -65 -95c-53 -36 -114 -50 -188 -50c-45 0 -80 20 -80 69c0 19 5 38 11 56c12 37 32 73 64 95c53 36 114 50 188 50z" fill="currentColor"/>
</g>
<g transform="translate(92.4458, 109.3434)">
<path transform="scale(0.0050, -0.0050)" d="M305 38c8 9 10 18 10 27c0 23 -20 42 -43 42c-4 0 -8 0 -12 -1c-31 -9 -78 -40 -115 -64s-85 -55 -106 -80c-8 -9 -11 -18 -11 -27c0 -23 21 -42 44 -42c4 0 7 0 11 1c31 9 79 40 116 64s85 55 106 80zM263 135c45 0 81 -20 81 -69c0 -19 -5 -38 -11 -56
c-12 -37 -33 -73 -65 -95c-53 -36 -114 -50 -188 -50c-45 0 -80 20 -80 69c0 19 5 38 11 56c12 37 32 73 64 95c53 36 114 50 188 50z" fill="currentColor"/>
</g>
<g transform="translate(92.4458, 100.4590)">
<text font-family="sans" font-size="2.4691" text-anchor="start" fill="currentColor">
<tspan>ra.</tspan>
</text>
</g>
<g transform="translate(92.4458, 94.3787)">
<text font-family="sans" font-size="2.2000" text-anchor="start" fill="currentColor">
<tspan>1</tspan>
</text>
</g>
<g transform="translate(82.0138, 115.3434)">
<rect x="-0.0697" y="-2.2582" width="0.1395" height="3.2582" ry="0.0444" fill="currentColor"/>
</g>
<g transform="translate(68.6399, 106.3434)">
<rect x="-0.0697" y="-1.8156" width="0.1395" height="3.0738" ry="0.0444" fill="currentColor"/>
</g>
<g color="rgba(0.0000%, 0.0000%, 100.0000%, 100.0000%)">
</g>
<g transform="translate(67.0653, 111.8434)">
<path transform="scale(0.0050, -0.0050)" d="M219 135c54 0 107 -27 107 -87c0 -18 -5 -37 -13 -54c-32 -66 -114 -129 -206 -129c-54 0 -107 27 -107 87c0 18 5 37 13 54c32 66 114 129 206 129z" fill="currentColor"/>
</g>
<g transform="translate(67.0653, 107.8434)">
<path transform="scale(0.0050, -0.0050)" d="M219 135c54 0 107 -27 107 -87c0 -18 -5 -37 -13 -54c-32 -66 -114 -129 -206 -129c-54 0 -107 27 -107 87c0 18 5 37 13 54c32 66 114 129 206 129z" fill="currentColor"/>
</g>
<g transform="translate(64.6753, 100.4590)">
<text font-family="sans" font-size="2.4691" text-anchor="start" fill="currentColor">
<tspan>ngan</tspan>
</text>
</g>
<g transform="translate(64.6753, 97.6590)">
<text font-family="sans" font-size="2.4691" text-anchor="start" fill="currentColor">
<tspan>ngan</tspan>
</text>
</g>
<g transform="translate(67.0653, 94.3787)">
<text font-family="sans" font-size="2.2000" text-anchor="start" fill="currentColor">
<tspan>4</tspan>
</text>
</g>
<g transform="translate(60.5067, 115.3434)">
<rect x="-0.0697" y="-3.7582" width="0.1395" height="3.7602" ry="0.0444" fill="currentColor"/>
</g>
<g transform="translate(62.0116, 106.3434)">
<rect x="-0.0697" y="-1.9981" width="0.1395" height="2.7563" ry="0.0444" fill="currentColor"/>
</g>
<g transform="translate(71.8590, 100.4590)">
<text font-family="sans" font-size="2.4691" text-anchor="start" fill="currentColor">
<tspan>gem</tspan>
</text>
</g>
<g transform="translate(73.9584, 115.3434)">
<rect x="-0.0697" y="-2.7582" width="0.1395" height="3.2582" ry="0.0444" fill="currentColor"/>
</g>
<g transform="translate(75.4632, 106.3434)">
<rect x="-0.0697" y="-1.5000" width="0.1395" height="3.2582" ry="0.0444" fill="currentColor"/>
</g>
<g color="rgba(0.0000%, 0.0000%, 100.0000%, 100.0000%)">
</g>
<g transform="translate(73.8886, 112.3434)">
<path transform="scale(0.0050, -0.0050)" d="M219 135c54 0 107 -27 107 -87c0 -18 -5 -37 -13 -54c-32 -66 -114 -129 -206 -129c-54 0 -107 27 -107 87c0 18 5 37 13 54c32 66 114 129 206 129z" fill="currentColor"/>
</g>
<g transform="translate(73.8886, 108.3434)">
<path transform="scale(0.0050, -0.0050)" d="M219 135c54 0 107 -27 107 -87c0 -18 -5 -37 -13 -54c-32 -66 -114 -129 -206 -129c-54 0 -107 27 -107 87c0 18 5 37 13 54c32 66 114 129 206 129z" fill="currentColor"/>
</g>
<g transform="translate(71.8590, 97.6590)">
<text font-family="sans" font-size="2.4691" text-anchor="start" fill="currentColor">
<tspan>gem</tspan>
</text>
</g>
<g transform="translate(73.8886, 94.3787)">
<text font-family="sans" font-size="2.2000" text-anchor="start" fill="currentColor">
<tspan>3</tspan>
</text>
</g>
<g transform="translate(67.1350, 115.3434)">
<rect x="-0.0697" y="-3.2582" width="0.1395" height="3.4427" ry="0.0444" fill="currentColor"/>
</g>
<g transform="translate(41.9979, 100.2590)">
<rect x="0.0000" y="-0.5595" width="0.6600" height="0.1395" ry="0.0429" fill="currentColor"/>
</g>
<g transform="translate(41.9979, 97.4590)">
<rect x="0.0000" y="-0.5595" width="0.6600" height="0.1395" ry="0.0429" fill="currentColor"/>
</g>
<g transform="translate(38.7038, 91.6001)">
<polygon stroke-linejoin="round" stroke-linecap="round" stroke-width="0.0889" fill="currentColor" stroke="currentColor" points="6.2275 -0.0306 6.2275 0.0306 0.0444 0.0306 0.0444 -0.0306"/>
</g>
<g transform="translate(26.4508, 100.2590)">
<rect x="0.0000" y="-0.5595" width="0.6600" height="0.1395" ry="0.0429" fill="currentColor"/>
</g>
<g transform="translate(26.4508, 97.4590)">
<rect x="0.0000" y="-0.5595" width="0.6600" height="0.1395" ry="0.0429" fill="currentColor"/>
</g>
<g transform="translate(50.7163, 91.6001)">
<polygon stroke-linejoin="round" stroke-linecap="round" stroke-width="0.0889" fill="currentColor" stroke="currentColor" points="6.2676 -0.0306 6.2676 0.0306 0.0444 0.0306 0.0444 -0.0306"/>
</g>
<g transform="translate(87.7754, 100.2590)">
<rect x="0.0000" y="-0.5595" width="0.6600" height="0.1395" ry="0.0429" fill="currentColor"/>
</g>
<g transform="translate(87.7754, 97.4590)">
<rect x="0.0000" y="-0.5595" width="0.6600" height="0.1395" ry="0.0429" fill="currentColor"/>
</g>
<g transform="translate(60.4370, 115.3434)">
<polygon stroke-linejoin="round" stroke-linecap="round" stroke-width="0.0889" fill="currentColor" stroke="currentColor" points="6.7234 -0.0092 6.7234 0.3819 0.0444 0.1956 0.0444 -0.1956"/>
</g>
<g transform="translate(61.9418, 104.3434)">
<polygon stroke-linejoin="round" stroke-linecap="round" stroke-width="0.0889" fill="currentColor" stroke="currentColor" points="6.7234 -0.0092 6.7234 0.3819 0.0444 0.1956 0.0444 -0.1956"/>
</g>
<g transform="translate(79.0943, 100.2590)">
<rect x="0.0000" y="-0.5595" width="0.6600" height="0.1395" ry="0.0429" fill="currentColor"/>
</g>
<g transform="translate(79.0943, 97.4590)">
<rect x="0.0000" y="-0.5595" width="0.6600" height="0.1395" ry="0.0429" fill="currentColor"/>
</g>
<g transform="translate(50.8174, 115.3434)">
<polygon stroke-linejoin="round" stroke-linecap="round" stroke-width="0.0889" fill="currentColor" stroke="currentColor" points="4.9048 -0.1956 4.9048 0.1956 0.0444 0.1956 0.0444 -0.1956"/>
</g>
<g transform="translate(52.3223, 104.3434)">
<polygon stroke-linejoin="round" stroke-linecap="round" stroke-width="0.0889" fill="currentColor" stroke="currentColor" points="4.9048 -0.1956 4.9048 0.1956 0.0444 0.1956 0.0444 -0.1956"/>
</g>
<g transform="translate(63.3453, 100.2590)">
<rect x="0.0000" y="-0.5595" width="0.6600" height="0.1395" ry="0.0429" fill="currentColor"/>
</g>
<g transform="translate(63.3453, 97.4590)">
<rect x="0.0000" y="-0.5595" width="0.6600" height="0.1395" ry="0.0429" fill="currentColor"/>
</g>
<g transform="translate(60.3359, 91.6001)">
<polygon stroke-linejoin="round" stroke-linecap="round" stroke-width="0.0889" fill="currentColor" stroke="currentColor" points="8.0861 -0.0306 8.0861 0.0306 0.0444 0.0306 0.0444 -0.0306"/>
</g>
<g transform="translate(40.3098, 103.3434)">
<polygon stroke-linejoin="round" stroke-linecap="round" stroke-width="0.0889" fill="currentColor" stroke="currentColor" points="4.8647 -0.0092 4.8647 0.3819 0.0444 0.1956 0.0444 -0.1956"/>
</g>
<g transform="translate(53.8597, 100.2590)">
<rect x="0.0000" y="-0.5595" width="0.6600" height="0.1395" ry="0.0429" fill="currentColor"/>
</g>
<g transform="translate(53.8597, 97.4590)">
<rect x="0.0000" y="-0.5595" width="0.6600" height="0.1395" ry="0.0429" fill="currentColor"/>
</g>
<g color="rgba(0.0000%, 0.0000%, 100.0000%, 100.0000%)">
</g>
<g transform="translate(100.8408, 94.1287)">
<circle stroke-linejoin="round" stroke-linecap="round" fill="currentColor" stroke="currentColor" stroke-width="0.0010" r="0.1800"/>
</g>
<g transform="translate(108.0126, 94.1287)">
<circle stroke-linejoin="round" stroke-linecap="round" fill="currentColor" stroke="currentColor" stroke-width="0.0010" r="0.1800"/>
</g>
<g transform="translate(92.5155, 115.3434)">
<rect x="-0.0697" y="-1.1673" width="0.1395" height="3.1673" ry="0.0444" fill="currentColor"/>
</g>
<g transform="translate(114.6844, 115.3434)">
<path transform="scale(0.0040, -0.0040)" d="M-24 -117c0 29 13 42 43 42c31 0 74 -11 113 -27l-129 154c-7 9 -11 18 -11 26c0 34 51 66 88 100c24 22 37 52 37 82c0 25 -9 49 -26 69l-33 40c-3 4 -4 7 -4 11c0 9 9 17 18 17c4 0 8 -2 12 -6l150 -179c7 -9 11 -18 11 -26c0 -34 -51 -65 -88 -99
c-24 -22 -37 -53 -37 -83c0 -25 8 -49 25 -69l82 -97c3 -4 4 -7 4 -11c0 -9 -8 -17 -17 -17c-4 0 -9 2 -13 6c-17 20 -60 36 -93 36c-41 0 -54 -25 -54 -66c0 -34 10 -73 27 -93c1 -2 3 -4 3 -6c0 -5 -4 -8 -9 -8c-2 0 -4 1 -6 3c-45 53 -93 147 -93 201z" fill="currentColor"/>
</g>
<g transform="translate(114.6844, 106.3434)">
<path transform="scale(0.0040, -0.0040)" d="M-24 -117c0 29 13 42 43 42c31 0 74 -11 113 -27l-129 154c-7 9 -11 18 -11 26c0 34 51 66 88 100c24 22 37 52 37 82c0 25 -9 49 -26 69l-33 40c-3 4 -4 7 -4 11c0 9 9 17 18 17c4 0 8 -2 12 -6l150 -179c7 -9 11 -18 11 -26c0 -34 -51 -65 -88 -99
c-24 -22 -37 -53 -37 -83c0 -25 8 -49 25 -69l82 -97c3 -4 4 -7 4 -11c0 -9 -8 -17 -17 -17c-4 0 -9 2 -13 6c-17 20 -60 36 -93 36c-41 0 -54 -25 -54 -66c0 -34 10 -73 27 -93c1 -2 3 -4 3 -6c0 -5 -4 -8 -9 -8c-2 0 -4 1 -6 3c-45 53 -93 147 -93 201z" fill="currentColor"/>
</g>
<g transform="translate(114.6844, 94.3787)">
<text font-family="sans" font-size="2.2000" text-anchor="start" fill="currentColor">
<tspan>0</tspan>
</text>
</g>
<g color="rgba(0.0000%, 0.0000%, 100.0000%, 100.0000%)">
</g>
<g transform="translate(28.7789, 100.4590)">
<text font-family="sans" font-size="2.4691" text-anchor="start" fill="currentColor">
<tspan>han,</tspan>
</text>
</g>
<g transform="translate(28.7789, 97.6590)">
<text font-family="sans" font-size="2.4691" text-anchor="start" fill="currentColor">
<tspan>han,</tspan>
</text>
</g>
<g transform="translate(30.7896, 94.3787)">
<text font-family="sans" font-size="2.2000" text-anchor="start" fill="currentColor">
<tspan>6</tspan>
</text>
</g>
<g transform="translate(22.8039, 115.3434)">
<rect x="-0.0697" y="-3.7582" width="0.1395" height="3.7582" ry="0.0444" fill="currentColor"/>
</g>
<g transform="translate(24.3087, 106.3434)">
<rect x="-0.0697" y="-2.5000" width="0.1395" height="3.2582" ry="0.0444" fill="currentColor"/>
</g>
<g transform="translate(30.7896, 106.8434)">
<path transform="scale(0.0050, -0.0050)" d="M219 135c54 0 107 -27 107 -87c0 -18 -5 -37 -13 -54c-32 -66 -114 -129 -206 -129c-54 0 -107 27 -107 87c0 18 5 37 13 54c32 66 114 129 206 129z" fill="currentColor"/>
</g>
<g color="rgba(0.0000%, 0.0000%, 100.0000%, 100.0000%)">
</g>
<g transform="translate(22.7341, 111.3434)">
<path transform="scale(0.0050, -0.0050)" d="M219 135c54 0 107 -27 107 -87c0 -18 -5 -37 -13 -54c-32 -66 -114 -129 -206 -129c-54 0 -107 27 -107 87c0 18 5 37 13 54c32 66 114 129 206 129z" fill="currentColor"/>
</g>
<g transform="translate(22.7341, 107.3434)">
<path transform="scale(0.0050, -0.0050)" d="M219 135c54 0 107 -27 107 -87c0 -18 -5 -37 -13 -54c-32 -66 -114 -129 -206 -129c-54 0 -107 27 -107 87c0 18 5 37 13 54c32 66 114 129 206 129z" fill="currentColor"/>
</g>
<g transform="translate(22.0892, 100.4590)">
<text font-family="sans" font-size="2.4691" text-anchor="start" fill="currentColor">
<tspan>Tu</tspan>
</text>
</g>
<g transform="translate(22.0892, 97.6590)">
<text font-family="sans" font-size="2.4691" text-anchor="start" fill="currentColor">
<tspan>Tu</tspan>
</text>
</g>
<g transform="translate(22.7341, 94.3787)">
<text font-family="sans" font-size="2.2000" text-anchor="start" fill="currentColor">
<tspan>5</tspan>
</text>
</g>
<g transform="translate(38.8049, 106.3434)">
<path transform="scale(0.0050, -0.0050)" d="M219 135c54 0 107 -27 107 -87c0 -18 -5 -37 -13 -54c-32 -66 -114 -129 -206 -129c-54 0 -107 27 -107 87c0 18 5 37 13 54c32 66 114 129 206 129z" fill="currentColor"/>
</g>
<g transform="translate(37.9513, 100.4590)">
<text font-family="sans" font-size="2.4691" text-anchor="start" fill="currentColor">
<tspan>pu</tspan>
</text>
</g>
<g transform="translate(37.9513, 97.6590)">
<text font-family="sans" font-size="2.4691" text-anchor="start" fill="currentColor">
<tspan>pu</tspan>
</text>
</g>
<g transform="translate(38.8049, 94.3787)">
<text font-family="sans" font-size="2.2000" text-anchor="start" fill="currentColor">
<tspan>7</tspan>
</text>
</g>
<g transform="translate(30.8593, 115.3434)">
<rect x="-0.0697" y="-4.1673" width="0.1395" height="4.1673" ry="0.0444" fill="currentColor"/>
</g>
<g transform="translate(32.3642, 106.3434)">
<rect x="-0.0697" y="-3.0000" width="0.1395" height="3.2582" ry="0.0444" fill="currentColor"/>
</g>
<g color="rgba(0.0000%, 0.0000%, 100.0000%, 100.0000%)">
</g>
<g transform="translate(30.7896, 110.8434)">
<path transform="scale(0.0050, -0.0050)" d="M305 38c8 9 10 18 10 27c0 23 -20 42 -43 42c-4 0 -8 0 -12 -1c-31 -9 -78 -40 -115 -64s-85 -55 -106 -80c-8 -9 -11 -18 -11 -27c0 -23 21 -42 44 -42c4 0 7 0 11 1c31 9 79 40 116 64s85 55 106 80zM263 135c45 0 81 -20 81 -69c0 -19 -5 -38 -11 -56
c-12 -37 -33 -73 -65 -95c-53 -36 -114 -50 -188 -50c-45 0 -80 20 -80 69c0 19 5 38 11 56c12 37 32 73 64 95c53 36 114 50 188 50z" fill="currentColor"/>
</g>
<g transform="translate(10.2843, 114.3434)">
<path transform="scale(0.0040, -0.0040)" d="M558 -125c0 28 22 51 50 51s51 -23 51 -51s-23 -51 -51 -51s-50 23 -50 51zM558 125c0 28 22 51 50 51s51 -23 51 -51s-23 -51 -51 -51s-50 23 -50 51zM231 264c172 0 294 -88 294 -251c0 -263 -262 -416 -515 -523c-3 -3 -7 -4 -10 -4c-7 0 -14 7 -14 14c0 3 1 7 4 10
c201 118 410 265 410 492c0 119 -61 234 -169 234c-72 0 -124 -53 -148 -123c10 4 19 6 29 6c55 0 100 -45 100 -100c0 -58 -44 -106 -100 -106c-60 0 -112 47 -112 106c0 133 101 245 231 245z" fill="currentColor"/>
</g>
<g transform="translate(10.2843, 107.3434)">
<path transform="scale(0.0040, -0.0040)" d="M248 554c-30 96 -54 193 -54 311c0 141 41 248 149 326c3 2 7 3 11 3s8 -1 11 -4c71 -83 134 -244 134 -357c0 -143 -85 -255 -178 -364c21 -68 40 -137 57 -206c4 0 8 1 12 1c156 0 256 -129 256 -262c0 -77 -34 -154 -108 -210c-22 -17 -46 -29 -72 -37
c3 -34 5 -68 5 -102c0 -20 -1 -40 -2 -60c-7 -121 -90 -228 -209 -228c-108 0 -196 87 -196 196c0 58 53 104 112 104c54 0 95 -48 95 -104c0 -52 -43 -95 -95 -95c-10 0 -20 2 -29 6c26 -38 68 -63 116 -63h3c93 2 153 92 159 190c1 19 2 37 2 56c0 30 -2 60 -4 90
c-29 -5 -58 -8 -88 -8c-188 0 -333 173 -333 375c0 177 130 307 246 442zM403 150c24 -115 46 -230 59 -352c76 28 110 92 110 159c0 89 -61 181 -169 193zM75 26c0 -134 129 -245 263 -245c28 0 55 2 81 6c-14 126 -36 244 -61 363c-79 -8 -124 -61 -124 -119
c0 -43 25 -89 80 -121c5 -5 7 -11 7 -16c0 -12 -10 -23 -22 -23c-3 0 -6 1 -9 2c-81 43 -118 116 -118 186c0 89 58 175 161 198c-14 58 -29 116 -46 173c-106 -122 -212 -244 -212 -404zM406 1042c-102 -49 -161 -144 -161 -261c0 -70 19 -129 37 -187
c78 96 145 200 145 325c0 39 -7 80 -21 123z" fill="currentColor"/>
</g>
<g transform="translate(9.3804, 104.2861)">
<rect x="0.0000" y="-13.1110" width="0.2039" height="26.2220" ry="0.0537" fill="currentColor"/>
</g>
<g transform="translate(9.0804, 110.8434)">
<path transform="scale(0.0045, -0.0045)" d="M-177 -1011c0 237 96 465 96 687c0 120 -27 234 -117 318c-3 3 -3 3 -3 6s0 3 3 6c90 84 117 198 117 318c0 222 -96 450 -96 687c0 171 42 333 165 450c3 3 9 3 12 3c9 0 15 -6 15 -15c0 -3 0 -9 -3 -12c-90 -87 -120 -198 -120 -318c0 -219 90 -444 90 -675
c0 -168 -42 -327 -159 -444c117 -117 159 -276 159 -444c0 -231 -90 -456 -90 -675c0 -120 30 -231 120 -318c3 -3 3 -9 3 -12c0 -9 -6 -15 -15 -15c-3 0 -9 0 -12 3c-123 117 -165 279 -165 450z" fill="currentColor"/>
</g>
<g transform="translate(13.8441, 100.4590)">
<text font-family="sans" font-size="2.4691" text-anchor="start" fill="currentColor">
<tspan>an</tspan>
</text>
</g>
<g transform="translate(14.7484, 115.3434)">
<rect x="-0.0697" y="-3.2582" width="0.1395" height="3.2582" ry="0.0444" fill="currentColor"/>
</g>
<g transform="translate(16.2533, 106.3434)">
<rect x="-0.0697" y="-2.0000" width="0.1395" height="3.2582" ry="0.0444" fill="currentColor"/>
</g>
<g color="rgba(0.0000%, 0.0000%, 100.0000%, 100.0000%)">
</g>
<g transform="translate(14.6787, 111.8434)">
<path transform="scale(0.0050, -0.0050)" d="M219 135c54 0 107 -27 107 -87c0 -18 -5 -37 -13 -54c-32 -66 -114 -129 -206 -129c-54 0 -107 27 -107 87c0 18 5 37 13 54c32 66 114 129 206 129z" fill="currentColor"/>
</g>
<g transform="translate(14.6787, 107.8434)">
<path transform="scale(0.0050, -0.0050)" d="M219 135c54 0 107 -27 107 -87c0 -18 -5 -37 -13 -54c-32 -66 -114 -129 -206 -129c-54 0 -107 27 -107 87c0 18 5 37 13 54c32 66 114 129 206 129z" fill="currentColor"/>
</g>
<g color="rgba(0.0000%, 0.0000%, 100.0000%, 100.0000%)">
</g>
<g transform="translate(13.8441, 97.6590)">
<text font-family="sans" font-size="2.4691" text-anchor="start" fill="currentColor">
<tspan>an</tspan>
</text>
</g>
<g transform="translate(14.6787, 94.3787)">
<text font-family="sans" font-size="2.2000" text-anchor="start" fill="currentColor">
<tspan>4</tspan>
</text>
</g>
<g transform="translate(55.6272, 107.3434)">
<path transform="scale(0.0050, -0.0050)" d="M219 135c54 0 107 -27 107 -87c0 -18 -5 -37 -13 -54c-32 -66 -114 -129 -206 -129c-54 0 -107 27 -107 87c0 18 5 37 13 54c32 66 114 129 206 129z" fill="currentColor"/>
</g>
<g transform="translate(55.5703, 100.4590)">
<text font-family="sans" font-size="2.4691" text-anchor="start" fill="currentColor">
<tspan>a</tspan>
</text>
</g>
<g transform="translate(55.5703, 97.6590)">
<text font-family="sans" font-size="2.4691" text-anchor="start" fill="currentColor">
<tspan>a</tspan>
</text>
</g>
<g transform="translate(55.6272, 94.3787)">
<text font-family="sans" font-size="2.2000" text-anchor="start" fill="currentColor">
<tspan>5</tspan>
</text>
</g>
<g transform="translate(55.6272, 111.3434)">
<path transform="scale(0.0050, -0.0050)" d="M219 135c54 0 107 -27 107 -87c0 -18 -5 -37 -13 -54c-32 -66 -114 -129 -206 -129c-54 0 -107 27 -107 87c0 18 5 37 13 54c32 66 114 129 206 129z" fill="currentColor"/>
</g>
<g transform="translate(50.8871, 115.3434)">
<rect x="-0.0697" y="-3.7582" width="0.1395" height="3.7582" ry="0.0444" fill="currentColor"/>
</g>
<g transform="translate(40.3795, 106.3434)">
<rect x="-0.0697" y="-2.9974" width="0.1395" height="2.7556" ry="0.0444" fill="currentColor"/>
</g>
<g transform="translate(52.3920, 106.3434)">
<rect x="-0.0697" y="-2.0000" width="0.1395" height="2.7582" ry="0.0444" fill="currentColor"/>
</g>
<g transform="translate(55.6969, 115.3434)">
<rect x="-0.0697" y="-3.7582" width="0.1395" height="3.7582" ry="0.0444" fill="currentColor"/>
</g>
<g color="rgba(0.0000%, 0.0000%, 100.0000%, 100.0000%)">
</g>
<g transform="translate(60.4370, 111.3434)">
<path transform="scale(0.0050, -0.0050)" d="M219 135c54 0 107 -27 107 -87c0 -18 -5 -37 -13 -54c-32 -66 -114 -129 -206 -129c-54 0 -107 27 -107 87c0 18 5 37 13 54c32 66 114 129 206 129z" fill="currentColor"/>
</g>
<g transform="translate(60.4370, 107.3434)">
<path transform="scale(0.0050, -0.0050)" d="M219 135c54 0 107 -27 107 -87c0 -18 -5 -37 -13 -54c-32 -66 -114 -129 -206 -129c-54 0 -107 27 -107 87c0 18 5 37 13 54c32 66 114 129 206 129z" fill="currentColor"/>
</g>
<g transform="translate(59.6024, 100.4590)">
<text font-family="sans" font-size="2.4691" text-anchor="start" fill="currentColor">
<tspan>de</tspan>
</text>
</g>
<g transform="translate(59.6024, 97.6590)">
<text font-family="sans" font-size="2.4691" text-anchor="start" fill="currentColor">
<tspan>de</tspan>
</text>
</g>
<g transform="translate(60.4370, 94.3787)">
<text font-family="sans" font-size="2.2000" text-anchor="start" fill="currentColor">
<tspan>5</tspan>
</text>
</g>
<g transform="translate(57.2018, 106.3434)">
<rect x="-0.0697" y="-2.0000" width="0.1395" height="2.7582" ry="0.0444" fill="currentColor"/>
</g>
<g color="rgba(0.0000%, 0.0000%, 100.0000%, 100.0000%)">
</g>
<g transform="translate(43.5746, 94.3787)">
<text font-family="sans" font-size="2.2000" text-anchor="start" fill="currentColor">
<tspan>6</tspan>
</text>
</g>
<g transform="translate(43.5936, 97.6590)">
<text font-family="sans" font-size="2.4691" text-anchor="start" fill="currentColor">
<tspan>ji</tspan>
</text>
</g>
<g transform="translate(50.8174, 94.3787)">
<text font-family="sans" font-size="2.2000" text-anchor="start" fill="currentColor">
<tspan>5</tspan>
</text>
</g>
<g transform="translate(43.5936, 100.4590)">
<text font-family="sans" font-size="2.4691" text-anchor="start" fill="currentColor">
<tspan>ji</tspan>
</text>
</g>
<g transform="translate(43.5746, 106.8434)">
<path transform="scale(0.0050, -0.0050)" d="M219 135c54 0 107 -27 107 -87c0 -18 -5 -37 -13 -54c-32 -66 -114 -129 -206 -129c-54 0 -107 27 -107 87c0 18 5 37 13 54c32 66 114 129 206 129z" fill="currentColor"/>
</g>
<g transform="translate(45.1492, 106.3434)">
<rect x="-0.0697" y="-2.8163" width="0.1395" height="3.0745" ry="0.0444" fill="currentColor"/>
</g>
<g color="rgba(0.0000%, 0.0000%, 100.0000%, 100.0000%)">
</g>
<g color="rgba(0.0000%, 0.0000%, 100.0000%, 100.0000%)">
</g>
<g transform="translate(50.8174, 111.3434)">
<path transform="scale(0.0050, -0.0050)" d="M219 135c54 0 107 -27 107 -87c0 -18 -5 -37 -13 -54c-32 -66 -114 -129 -206 -129c-54 0 -107 27 -107 87c0 18 5 37 13 54c32 66 114 129 206 129z" fill="currentColor"/>
</g>
<g transform="translate(50.8174, 107.3434)">
<path transform="scale(0.0050, -0.0050)" d="M219 135c54 0 107 -27 107 -87c0 -18 -5 -37 -13 -54c-32 -66 -114 -129 -206 -129c-54 0 -107 27 -107 87c0 18 5 37 13 54c32 66 114 129 206 129z" fill="currentColor"/>
</g>
<g transform="translate(50.2294, 100.4590)">
<text font-family="sans" font-size="2.4691" text-anchor="start" fill="currentColor">
<tspan>Di</tspan>
</text>
</g>
<g transform="translate(50.2294, 97.6590)">
<text font-family="sans" font-size="2.4691" text-anchor="start" fill="currentColor">
<tspan>Di</tspan>
</text>
</g>
<g transform="translate(55.0845, 119.8861)">
<text font-family="serif" font-size="1.9601" text-anchor="start" fill="currentColor">
<tspan> 2025 Henri Yulianto</tspan>
</text>
</g>
</svg>
